<svg xmlns="http://www.w3.org/2000/svg" width="60" height="60" viewBox="0 0 60 60">
  <g id="Group_19337" data-name="Group 19337" transform="translate(-1044 -958)">
    <circle id="Ellipse_233" data-name="Ellipse 233" cx="30" cy="30" r="30" transform="translate(1044 958)" fill="#4c888e"/>
    <g id="server" transform="translate(1060.366 974.093)">
      <path id="Path_18040" data-name="Path 18040" d="M8.045,6.5A2.045,2.045,0,1,0,10.09,8.545,2.037,2.037,0,0,0,8.045,6.5Zm0,3.181A1.136,1.136,0,1,1,9.181,8.545,1.125,1.125,0,0,1,8.045,9.681Z" transform="translate(-3.273 -3.273)" fill="#fff"/>
      <circle id="Ellipse_235" data-name="Ellipse 235" cx="0.416" cy="0.416" r="0.416" transform="translate(21.954 4.339)" fill="#fff"/>
      <circle id="Ellipse_236" data-name="Ellipse 236" cx="0.416" cy="0.416" r="0.416" transform="translate(20.29 4.339)" fill="#fff"/>
      <ellipse id="Ellipse_237" data-name="Ellipse 237" cx="0.832" cy="0.416" rx="0.832" ry="0.416" transform="translate(22.786 5.171)" fill="#fff"/>
      <circle id="Ellipse_238" data-name="Ellipse 238" cx="0.416" cy="0.416" r="0.416" transform="translate(21.122 5.171)" fill="#fff"/>
      <circle id="Ellipse_239" data-name="Ellipse 239" cx="0.416" cy="0.416" r="0.416" transform="translate(18.626 4.339)" fill="#fff"/>
      <circle id="Ellipse_240" data-name="Ellipse 240" cx="0.416" cy="0.416" r="0.416" transform="translate(19.458 5.171)" fill="#fff"/>
      <circle id="Ellipse_241" data-name="Ellipse 241" cx="0.416" cy="0.416" r="0.416" transform="translate(16.962 4.339)" fill="#fff"/>
      <circle id="Ellipse_242" data-name="Ellipse 242" cx="0.416" cy="0.416" r="0.416" transform="translate(17.794 5.171)" fill="#fff"/>
      <circle id="Ellipse_243" data-name="Ellipse 243" cx="0.416" cy="0.416" r="0.416" transform="translate(15.298 4.339)" fill="#fff"/>
      <circle id="Ellipse_244" data-name="Ellipse 244" cx="0.416" cy="0.416" r="0.416" transform="translate(16.13 5.171)" fill="#fff"/>
      <path id="Path_18041" data-name="Path 18041" d="M27.268,7.953V2.591A2.115,2.115,0,0,0,25.177.5H2.091A2.115,2.115,0,0,0,0,2.591V7.953A2,2,0,0,0,.818,9.589,2,2,0,0,0,0,11.225v5.363a2,2,0,0,0,.818,1.636A2,2,0,0,0,0,19.86v5.363a2.115,2.115,0,0,0,2.091,2.091H25.177a2.115,2.115,0,0,0,2.091-2.091V19.86a2,2,0,0,0-.818-1.636,2,2,0,0,0,.818-1.636V11.225a2,2,0,0,0-.818-1.636A2,2,0,0,0,27.268,7.953ZM26.359,19.86v5.363A1.2,1.2,0,0,1,25.177,26.4H2.091A1.2,1.2,0,0,1,.909,25.223V19.86a1.2,1.2,0,0,1,1.182-1.182H25.177A1.2,1.2,0,0,1,26.359,19.86Zm0-8.635v5.363a1.2,1.2,0,0,1-1.182,1.182H2.091A1.2,1.2,0,0,1,.909,16.588V11.225a1.2,1.2,0,0,1,1.182-1.182H25.177A1.2,1.2,0,0,1,26.359,11.225ZM2.091,9.135A1.2,1.2,0,0,1,.909,7.953V2.591A1.2,1.2,0,0,1,2.091,1.409H25.177a1.2,1.2,0,0,1,1.182,1.182V7.953a1.2,1.2,0,0,1-1.182,1.182Z" fill="#fff"/>
      <path id="Path_18042" data-name="Path 18042" d="M8.045,29.59A2.045,2.045,0,1,0,6,27.545,2.037,2.037,0,0,0,8.045,29.59Zm0-3.181a1.136,1.136,0,1,1-1.136,1.136A1.125,1.125,0,0,1,8.045,26.409Z" transform="translate(-3.273 -13.639)" fill="#fff"/>
      <circle id="Ellipse_245" data-name="Ellipse 245" cx="0.416" cy="0.416" r="0.416" transform="translate(21.954 12.659)" fill="#fff"/>
      <circle id="Ellipse_246" data-name="Ellipse 246" cx="0.416" cy="0.416" r="0.416" transform="translate(20.29 12.659)" fill="#fff"/>
      <ellipse id="Ellipse_247" data-name="Ellipse 247" cx="0.832" cy="0.416" rx="0.832" ry="0.416" transform="translate(22.786 14.323)" fill="#fff"/>
      <circle id="Ellipse_248" data-name="Ellipse 248" cx="0.416" cy="0.416" r="0.416" transform="translate(21.122 14.323)" fill="#fff"/>
      <circle id="Ellipse_249" data-name="Ellipse 249" cx="0.416" cy="0.416" r="0.416" transform="translate(18.626 12.659)" fill="#fff"/>
      <circle id="Ellipse_250" data-name="Ellipse 250" cx="0.416" cy="0.416" r="0.416" transform="translate(19.458 14.323)" fill="#fff"/>
      <circle id="Ellipse_251" data-name="Ellipse 251" cx="0.416" cy="0.416" r="0.416" transform="translate(16.962 12.659)" fill="#fff"/>
      <circle id="Ellipse_252" data-name="Ellipse 252" cx="0.416" cy="0.416" r="0.416" transform="translate(17.794 14.323)" fill="#fff"/>
      <circle id="Ellipse_253" data-name="Ellipse 253" cx="0.416" cy="0.416" r="0.416" transform="translate(15.298 12.659)" fill="#fff"/>
      <circle id="Ellipse_254" data-name="Ellipse 254" cx="0.416" cy="0.416" r="0.416" transform="translate(16.13 14.323)" fill="#fff"/>
      <path id="Path_18043" data-name="Path 18043" d="M8.045,48.59A2.045,2.045,0,1,0,6,46.545,2.037,2.037,0,0,0,8.045,48.59Zm0-3.181a1.136,1.136,0,1,1-1.136,1.136A1.125,1.125,0,0,1,8.045,45.409Z" transform="translate(-3.273 -24.004)" fill="#fff"/>
      <circle id="Ellipse_255" data-name="Ellipse 255" cx="0.416" cy="0.416" r="0.416" transform="translate(21.954 21.811)" fill="#fff"/>
      <circle id="Ellipse_256" data-name="Ellipse 256" cx="0.416" cy="0.416" r="0.416" transform="translate(20.29 21.811)" fill="#fff"/>
      <ellipse id="Ellipse_257" data-name="Ellipse 257" cx="0.832" cy="0.416" rx="0.832" ry="0.416" transform="translate(22.786 22.643)" fill="#fff"/>
      <circle id="Ellipse_258" data-name="Ellipse 258" cx="0.416" cy="0.416" r="0.416" transform="translate(21.122 22.643)" fill="#fff"/>
      <circle id="Ellipse_259" data-name="Ellipse 259" cx="0.416" cy="0.416" r="0.416" transform="translate(18.626 21.811)" fill="#fff"/>
      <circle id="Ellipse_260" data-name="Ellipse 260" cx="0.416" cy="0.416" r="0.416" transform="translate(19.458 22.643)" fill="#fff"/>
      <circle id="Ellipse_261" data-name="Ellipse 261" cx="0.416" cy="0.416" r="0.416" transform="translate(16.962 21.811)" fill="#fff"/>
      <circle id="Ellipse_262" data-name="Ellipse 262" cx="0.416" cy="0.416" r="0.416" transform="translate(17.794 22.643)" fill="#fff"/>
      <circle id="Ellipse_263" data-name="Ellipse 263" cx="0.416" cy="0.416" r="0.416" transform="translate(15.298 21.811)" fill="#fff"/>
      <circle id="Ellipse_264" data-name="Ellipse 264" cx="0.416" cy="0.416" r="0.416" transform="translate(16.13 22.643)" fill="#fff"/>
    </g>
  </g>
</svg>
