<svg xmlns="http://www.w3.org/2000/svg" width="60" height="60" viewBox="0 0 60 60">
  <g id="icon-project-development" transform="translate(-48 -44)">
    <g id="icon-project-development-2" data-name="icon-project-development" transform="translate(-996 -914)">
      <circle id="Ellipse_233" data-name="Ellipse 233" cx="30" cy="30" r="30" transform="translate(1044 958)" fill="#4c888e"/>
    </g>
    <g id="Group_17625" data-name="Group 17625" transform="translate(65 61)">
      <rect id="Rectangle_494" data-name="Rectangle 494" width="25.284" height="25.284" transform="translate(0.007 0)" fill="none"/>
      <g id="project-management" transform="translate(0 0)">
        <g id="Group_10632" data-name="Group 10632" transform="translate(0 0.104)">
          <g id="Group_10631" data-name="Group 10631" transform="translate(0 0)">
            <path id="Path_11493" data-name="Path 11493" d="M24.931,8.59h0L23.3,8.356a.42.42,0,0,1-.193-.751l1.319-.99a.42.42,0,0,0,.084-.588L23,4.014a.42.42,0,0,0-.588-.084l-1.319.99a.42.42,0,0,1-.669-.395l.233-1.632a.42.42,0,0,0-.356-.475h0l-2.491-.356a.42.42,0,0,0-.475.356h0L17.1,4.049a.42.42,0,0,1-.751.193L15.36,2.923a.42.42,0,0,0-.588-.084l-1.261.946a8.12,8.12,0,0,0-1.716,0,7.974,7.974,0,0,0-7.031,7.15c-.011.119-.016.237-.021.355H4.617a.42.42,0,0,0-.41.336L3.916,13l-1.162-.8a.42.42,0,0,0-.535.049L.961,13.511a.42.42,0,0,0-.049.535l.8,1.16-1.379.29a.42.42,0,0,0-.33.411v1.679A.42.42,0,0,0,.333,18l1.379.29-.8,1.16a.42.42,0,0,0,.049.535l1.259,1.259a.42.42,0,0,0,.535.049l1.16-.8.29,1.379a.42.42,0,0,0,.41.336H6.3a.42.42,0,0,0,.411-.333L7,20.49l1.16.8a.42.42,0,0,0,.535-.049l.652-.654v1.2a1.673,1.673,0,0,0,.839,1.445v2.332a1.679,1.679,0,0,0,1.679,1.679H13.54a1.679,1.679,0,0,0,1.679-1.679V23.226a1.673,1.673,0,0,0,.839-1.445V20.12a2.056,2.056,0,0,1,.971-1.713,8.054,8.054,0,0,0,.988-.755l-.56-.625a7.144,7.144,0,0,1-.884.676,2.891,2.891,0,0,0-1.354,2.418v1.661a.839.839,0,0,1-.839.839H11.022a.839.839,0,0,1-.839-.839v-1.7a2.823,2.823,0,0,0-1.331-2.369A7.113,7.113,0,0,1,12.61,4.581a.456.456,0,0,0-.016.046.42.42,0,0,0,.08.311l.989,1.319a.411.411,0,0,1,.025.466.417.417,0,0,1-.42.2l-1.632-.233a.42.42,0,0,0-.475.356h0L10.805,9.54a.42.42,0,0,0,.356.475h0l1.632.233a.42.42,0,0,1,.193.751l-1.319.989a.42.42,0,0,0-.084.588l1.511,2.014a.42.42,0,0,0,.588.084L15,13.685a.42.42,0,0,1,.667.395l-.233,1.632a.42.42,0,0,0,.356.475h0l2.493.356a.464.464,0,0,0,.059,0,.42.42,0,0,0,.416-.36l.233-1.632a.42.42,0,0,1,.751-.193l.99,1.319a.42.42,0,0,0,.588.084l2.014-1.511a.42.42,0,0,0,.084-.588l-.989-1.319a.412.412,0,0,1-.025-.466.408.408,0,0,1,.42-.2l1.632.233a.42.42,0,0,0,.475-.356h0l.356-2.493A.42.42,0,0,0,24.931,8.59ZM11.022,23.46h3.357V24.3H11.022Zm0,1.679h3.357v.42a.839.839,0,0,1-.839.839H11.861a.839.839,0,0,1-.839-.839ZM7.681,17.9a7.932,7.932,0,0,0,.717.522A2.048,2.048,0,0,1,9.244,19.5l-.9.9-.872-.6a.839.839,0,0,0-1.3.518l-.22,1.048h-1l-.22-1.046a.839.839,0,0,0-1.3-.518l-.872.6L1.8,19.633l.6-.871a.839.839,0,0,0-.518-1.3l-1.046-.22v-1l1.046-.22a.839.839,0,0,0,.518-1.3l-.6-.874.765-.763.872.6a.839.839,0,0,0,1.3-.519l.073-.349a7.992,7.992,0,0,0,.333,1.423A2.518,2.518,0,1,0,7.681,17.9Zm-.652-.591a1.676,1.676,0,1,1-1.574-2.244h.016A7.948,7.948,0,0,0,7.029,17.31Zm17.128-6.287-1.217-.174a1.259,1.259,0,0,0-1.185,2l.737.983L21.15,14.841l-.738-.983a1.259,1.259,0,0,0-2.254.577l-.17,1.219-1.661-.238L16.5,14.2a1.259,1.259,0,0,0-2-1.186l-.983.737-1.007-1.343.983-.738a1.259,1.259,0,0,0-.577-2.254L11.7,9.243l.238-1.661,1.217.174a1.259,1.259,0,0,0,1.186-2L13.6,4.77,14.94,3.762l.738.983a1.259,1.259,0,0,0,2.254-.577l.174-1.217,1.661.237-.174,1.217a1.259,1.259,0,0,0,2,1.185l.983-.737L23.585,6.2l-.983.738a1.259,1.259,0,0,0,.577,2.254l1.217.174Z" transform="translate(0 -2.057)" fill="#fff"/>
          </g>
        </g>
        <g id="Group_10634" data-name="Group 10634" transform="translate(14.688 3.992)">
          <g id="Group_10633" data-name="Group 10633">
            <path id="Path_11494" data-name="Path 11494" d="M283.357,76.171a3.357,3.357,0,1,0,3.357,3.357A3.357,3.357,0,0,0,283.357,76.171Zm0,5.875a2.518,2.518,0,1,1,2.518-2.518A2.518,2.518,0,0,1,283.357,82.046Z" transform="translate(-280 -76.171)" fill="#fff"/>
          </g>
        </g>
        <g id="Group_10636" data-name="Group 10636" transform="translate(12.281 18.57)">
          <g id="Group_10635" data-name="Group 10635">
            <rect id="Rectangle_554" data-name="Rectangle 554" width="0.839" height="1.259" fill="#fff"/>
          </g>
        </g>
        <g id="Group_10638" data-name="Group 10638" transform="translate(6.822 4.785)">
          <g id="Group_10637" data-name="Group 10637">
            <path id="Path_11495" data-name="Path 11495" d="M134.088,100.954a5.036,5.036,0,0,1-.85-8.953l-.449-.71a5.875,5.875,0,0,0,.994,10.444,2.679,2.679,0,0,1,1.721,2.5h.839A3.511,3.511,0,0,0,134.088,100.954Z" transform="translate(-130.044 -91.291)" fill="#fff"/>
          </g>
        </g>
        <g id="Group_10640" data-name="Group 10640" transform="translate(20.674 15.632)">
          <g id="Group_10639" data-name="Group 10639">
            <rect id="Rectangle_555" data-name="Rectangle 555" width="2.938" height="0.839" fill="#fff"/>
          </g>
        </g>
        <g id="Group_10642" data-name="Group 10642" transform="translate(19.986 17.827)">
          <g id="Group_10641" data-name="Group 10641" transform="translate(0 0)">
            <rect id="Rectangle_556" data-name="Rectangle 556" width="0.839" height="3.278" transform="matrix(0.64, -0.768, 0.768, 0.64, 0, 0.645)" fill="#fff"/>
          </g>
        </g>
        <g id="Group_10644" data-name="Group 10644" transform="translate(18.156 18.989)">
          <g id="Group_10643" data-name="Group 10643">
            <rect id="Rectangle_557" data-name="Rectangle 557" width="0.839" height="2.938" fill="#fff"/>
          </g>
        </g>
        <g id="Group_10646" data-name="Group 10646" transform="translate(0.429 6.412)">
          <g id="Group_10645" data-name="Group 10645" transform="translate(0 0)">
            <rect id="Rectangle_558" data-name="Rectangle 558" width="3.461" height="0.839" transform="translate(0 0.839) rotate(-14.035)" fill="#fff"/>
          </g>
        </g>
        <g id="Group_10648" data-name="Group 10648" transform="translate(1.126 2.282)">
          <g id="Group_10647" data-name="Group 10647" transform="translate(0 0)">
            <rect id="Rectangle_559" data-name="Rectangle 559" width="0.839" height="3.61" transform="matrix(0.581, -0.814, 0.814, 0.581, 0, 0.683)" fill="#fff"/>
          </g>
        </g>
        <g id="Group_10650" data-name="Group 10650" transform="translate(4.721)">
          <g id="Group_10649" data-name="Group 10649" transform="translate(0)">
            <rect id="Rectangle_560" data-name="Rectangle 560" width="0.839" height="3.465" transform="matrix(0.969, -0.248, 0.248, 0.969, 0, 0.208)" fill="#fff"/>
          </g>
        </g>
      </g>
    </g>
  </g>
</svg>
