<svg xmlns="http://www.w3.org/2000/svg" width="60" height="60" viewBox="0 0 60 60">
  <g id="icon-softvare-development" transform="translate(-48 -44)">
    <g id="icon-softvare-development-2" data-name="icon-softvare-development" transform="translate(-170 -914)">
      <g id="Group_19335" data-name="Group 19335" transform="translate(20 10)">
        <circle id="Ellipse_232" data-name="Ellipse 232" cx="30" cy="30" r="30" transform="translate(198 948)" fill="#004cba"/>
      </g>
    </g>
    <g id="Group_17672" data-name="Group 17672" transform="translate(66 62)">
      <g id="Group_17670" data-name="Group 17670" transform="translate(6.154 6.947)">
        <path id="Path_16641" data-name="Path 16641" d="M305.847,214.084l1.225,1.225-1.225,1.225.958.958,2.184-2.184-2.184-2.184Z" transform="translate(-298.201 -210.463)" fill="#fff"/>
        <path id="Path_16642" data-name="Path 16642" d="M138.79,213.126l-2.184,2.184,2.184,2.184.958-.958-1.225-1.225,1.225-1.225Z" transform="translate(-136.606 -210.463)" fill="#fff"/>
        <path id="Path_16643" data-name="Path 16643" d="M0,0H9.1V1.355H0Z" transform="matrix(0.174, -0.985, 0.985, 0.174, 3.961, 8.968)" fill="#fff"/>
      </g>
      <g id="Group_17671" data-name="Group 17671">
        <rect id="Rectangle_496" data-name="Rectangle 496" width="23.095" height="23.095" fill="none"/>
        <g id="settings" transform="translate(0.422 0.186)">
          <path id="Path_11503" data-name="Path 11503" d="M11.824,22.252h-1.4A2.051,2.051,0,0,1,8.379,20.2v-.472a8.984,8.984,0,0,1-1.395-.579l-.335.335a2.048,2.048,0,0,1-2.9,0L2.765,18.5a2.048,2.048,0,0,1,0-2.9l.335-.335a8.984,8.984,0,0,1-.579-1.395H2.048A2.051,2.051,0,0,1,0,11.824v-1.4A2.051,2.051,0,0,1,2.049,8.379h.472A8.986,8.986,0,0,1,3.1,6.984L2.765,6.65a2.048,2.048,0,0,1,0-2.9l.987-.987a2.048,2.048,0,0,1,2.9,0l.335.335a8.992,8.992,0,0,1,1.395-.579V2.048A2.051,2.051,0,0,1,10.428,0h1.4a2.051,2.051,0,0,1,2.048,2.048v.472a8.983,8.983,0,0,1,1.395.579l.335-.335a2.048,2.048,0,0,1,2.9,0l.987.987a2.048,2.048,0,0,1,0,2.9l-.335.335a8.984,8.984,0,0,1,.579,1.395H20.2a2.051,2.051,0,0,1,2.048,2.048v1.4A2.051,2.051,0,0,1,20.2,13.873h-.472a8.986,8.986,0,0,1-.579,1.395l.335.335a2.048,2.048,0,0,1,0,2.9l-.987.987a2.048,2.048,0,0,1-2.9,0l-.335-.335a8.991,8.991,0,0,1-1.395.579V20.2A2.051,2.051,0,0,1,11.824,22.252ZM7.2,17.783a7.684,7.684,0,0,0,1.992.827.652.652,0,0,1,.489.631V20.2a.746.746,0,0,0,.745.745h1.4a.746.746,0,0,0,.745-.745v-.963a.652.652,0,0,1,.489-.631,7.684,7.684,0,0,0,1.992-.827.652.652,0,0,1,.793.1l.682.682a.744.744,0,0,0,1.053,0l.988-.988a.744.744,0,0,0,0-1.053l-.682-.682a.652.652,0,0,1-.1-.793,7.683,7.683,0,0,0,.827-1.992.652.652,0,0,1,.631-.489H20.2a.746.746,0,0,0,.745-.745v-1.4a.746.746,0,0,0-.745-.745h-.963a.652.652,0,0,1-.631-.489A7.684,7.684,0,0,0,17.783,7.2a.652.652,0,0,1,.1-.793l.682-.682a.744.744,0,0,0,0-1.053l-.988-.988a.744.744,0,0,0-1.053,0l-.682.682a.652.652,0,0,1-.793.1,7.684,7.684,0,0,0-1.992-.827.652.652,0,0,1-.489-.631V2.048a.746.746,0,0,0-.745-.745h-1.4a.746.746,0,0,0-.745.745v.963a.652.652,0,0,1-.489.631A7.685,7.685,0,0,0,7.2,4.469a.652.652,0,0,1-.793-.1l-.682-.682a.744.744,0,0,0-1.053,0l-.988.988a.744.744,0,0,0,0,1.053l.682.682a.652.652,0,0,1,.1.793,7.683,7.683,0,0,0-.827,1.992.652.652,0,0,1-.631.489H2.049a.746.746,0,0,0-.745.745v1.4a.746.746,0,0,0,.745.745h.963a.652.652,0,0,1,.631.489,7.685,7.685,0,0,0,.827,1.992.652.652,0,0,1-.1.793l-.682.682a.744.744,0,0,0,0,1.053l.988.988a.744.744,0,0,0,1.053,0l.682-.682a.655.655,0,0,1,.793-.1Z" transform="translate(0 0)" fill="#fff"/>
        </g>
      </g>
    </g>
  </g>
</svg>
