<svg xmlns="http://www.w3.org/2000/svg" width="60" height="60" viewBox="0 0 60 60">
  <g id="icon-id-infrastructure" transform="translate(-48 -44)">
    <g id="icon-id-infrastructure-2" data-name="icon-id-infrastructure" transform="translate(-996 -914)">
      <circle id="Ellipse_233" data-name="Ellipse 233" cx="30" cy="30" r="30" transform="translate(1044 958)" fill="#f4b50a"/>
    </g>
    <g id="Group_17627" data-name="Group 17627" transform="translate(66 62)">
      <rect id="Rectangle_495" data-name="Rectangle 495" width="23.092" height="23.092" fill="none"/>
      <g id="database" transform="translate(1.399 0.788)">
        <g id="Group_10652" data-name="Group 10652" transform="translate(13.615 2.436)">
          <g id="Group_10651" data-name="Group 10651">
            <path id="Path_11498" data-name="Path 11498" d="M324.42,57.959a.421.421,0,1,0,.42.422v0A.419.419,0,0,0,324.42,57.959Z" transform="translate(-324 -57.959)" fill="#fff"/>
          </g>
        </g>
        <g id="Group_10654" data-name="Group 10654" transform="translate(8.11 1.471)">
          <g id="Group_10653" data-name="Group 10653">
            <path id="Path_11499" data-name="Path 11499" d="M197.309,35.276A24.483,24.483,0,0,0,193.42,35a.42.42,0,1,0,0,.84,23.642,23.642,0,0,1,3.749.264.42.42,0,1,0,.14-.829Z" transform="translate(-193 -35)" fill="#fff"/>
          </g>
        </g>
        <g id="Group_10656" data-name="Group 10656" transform="translate(13.951 13.951)">
          <g id="Group_10655" data-name="Group 10655">
            <path id="Path_11500" data-name="Path 11500" d="M336.791,334.184a.42.42,0,0,0-.42.42,1.765,1.765,0,1,1-1.65-1.761.42.42,0,0,0,.055-.839,2.605,2.605,0,1,0,2.436,2.6A.42.42,0,0,0,336.791,334.184Z" transform="translate(-332 -331.999)" fill="#fff"/>
          </g>
        </g>
        <g id="Group_10658" data-name="Group 10658" transform="translate(17.674 14.584)">
          <g id="Group_10657" data-name="Group 10657">
            <path id="Path_11501" data-name="Path 11501" d="M421.32,347.185l-.007-.007-.3.3.3-.3a.42.42,0,1,0-.594.594l.006.006a.42.42,0,0,0,.6-.592Z" transform="translate(-420.594 -347.053)" fill="#fff"/>
          </g>
        </g>
        <g id="Group_10660" data-name="Group 10660">
          <g id="Group_10659" data-name="Group 10659">
            <path id="Path_11502" data-name="Path 11502" d="M21.2,15.457l-.61-.152-.3-.712.324-.538a.42.42,0,0,0-.063-.514l-.979-.979a.42.42,0,0,0-.514-.063l-.538.324-.712-.3-.152-.61a.42.42,0,0,0-.408-.319h-.188V2.857c0-.865-.925-1.6-2.675-2.126A21.215,21.215,0,0,0,8.531,0,21.215,21.215,0,0,0,2.675.732C.925,1.257,0,1.992,0,2.857v15.8c0,.865.925,1.6,2.675,2.126a21.215,21.215,0,0,0,5.856.732,26.17,26.17,0,0,0,2.72-.138.42.42,0,1,0-.088-.836,25.332,25.332,0,0,1-2.632.133,20.368,20.368,0,0,1-5.614-.7c-1.532-.46-2.076-1-2.076-1.321V14.7a6.522,6.522,0,0,0,1.834.818,21.215,21.215,0,0,0,5.856.732c.644,0,1.286-.022,1.907-.067a.42.42,0,1,0-.06-.838c-.6.043-1.223.065-1.847.065a20.368,20.368,0,0,1-5.614-.7c-1.532-.46-2.076-1-2.076-1.321V9.432a6.523,6.523,0,0,0,1.834.818,21.214,21.214,0,0,0,5.856.732,21.214,21.214,0,0,0,5.856-.732,6.524,6.524,0,0,0,1.834-.818V11.6h-.356a.42.42,0,0,0-.408.319l-.152.61-.712.3-.538-.324a.42.42,0,0,0-.514.063l-.979.979a.42.42,0,0,0-.063.514l.324.538-.3.712-.61.152a.42.42,0,0,0-.319.408v1.385a.42.42,0,0,0,.319.408l.61.152.3.712-.324.539a.42.42,0,0,0,.063.514l.979.979a.42.42,0,0,0,.514.063l.538-.324.712.3.152.61a.42.42,0,0,0,.408.319h1.385a.42.42,0,0,0,.408-.319l.152-.61.712-.3.538.324a.42.42,0,0,0,.514-.063l.979-.979a.42.42,0,0,0,.063-.514l-.324-.539.3-.712.61-.152a.42.42,0,0,0,.319-.408V15.864A.42.42,0,0,0,21.2,15.457ZM2.917,1.536A20.368,20.368,0,0,1,8.531.84a20.368,20.368,0,0,1,5.614.7c1.532.46,2.076,1,2.076,1.321s-.544.86-2.076,1.321a20.367,20.367,0,0,1-5.614.7,20.367,20.367,0,0,1-5.614-.7C1.384,3.717.84,3.179.84,2.857S1.384,2,2.917,1.536ZM14.144,9.445a20.367,20.367,0,0,1-5.614.7,20.367,20.367,0,0,1-5.614-.7C1.384,8.984.84,8.446.84,8.124V4.165a6.523,6.523,0,0,0,1.834.818,21.214,21.214,0,0,0,5.856.732,21.214,21.214,0,0,0,5.856-.732,6.524,6.524,0,0,0,1.834-.818V8.124C16.221,8.446,15.677,8.984,14.144,9.445Zm6.531,7.476-.5.124a.42.42,0,0,0-.287.247l-.457,1.1a.42.42,0,0,0,.028.377l.264.439-.515.515-.439-.264a.42.42,0,0,0-.377-.028l-1.1.457a.42.42,0,0,0-.247.287l-.124.5h-.728l-.124-.5a.42.42,0,0,0-.247-.287l-1.1-.457a.42.42,0,0,0-.377.028l-.439.264-.515-.515.264-.439a.42.42,0,0,0,.028-.377l-.457-1.1a.42.42,0,0,0-.287-.247l-.5-.124v-.728l.5-.124a.42.42,0,0,0,.287-.247l.457-1.1a.42.42,0,0,0-.028-.377l-.264-.439.515-.515.439.264a.42.42,0,0,0,.377.028l1.1-.457a.42.42,0,0,0,.247-.287l.124-.5h.728l.124.5a.42.42,0,0,0,.247.287l1.1.457a.42.42,0,0,0,.377-.028l.439-.264.515.515-.264.439a.42.42,0,0,0-.028.377l.457,1.1a.42.42,0,0,0,.287.247l.5.124Z" transform="translate(0 0)" fill="#fff"/>
          </g>
        </g>
      </g>
    </g>
  </g>
</svg>
