<svg xmlns="http://www.w3.org/2000/svg" width="60" height="60" viewBox="0 0 60 60">
  <g id="icon-product-development" transform="translate(-48 -44)">
    <g id="icon-product-development-2" data-name="icon-product-development" transform="translate(-170 -914)">
      <g id="Group_19335" data-name="Group 19335" transform="translate(20 10)">
        <circle id="Ellipse_232" data-name="Ellipse 232" cx="30" cy="30" r="30" transform="translate(198 948)" fill="#4c888e"/>
      </g>
    </g>
    <g id="Group_10663" data-name="Group 10663" transform="matrix(0.485, -0.875, 0.875, 0.485, 64, 77.76)">
      <rect id="Rectangle_496" data-name="Rectangle 496" width="20.11" height="20.11" transform="translate(0 0)" fill="none"/>
      <g id="settings" transform="translate(0.33 0.096)">
        <path id="Path_11503" data-name="Path 11503" d="M10.614,19.975H9.361a1.841,1.841,0,0,1-1.839-1.839v-.424a8.064,8.064,0,0,1-1.252-.52l-.3.3a1.839,1.839,0,0,1-2.6,0l-.886-.886a1.839,1.839,0,0,1,0-2.6l.3-.3a8.065,8.065,0,0,1-.52-1.252H1.839A1.841,1.841,0,0,1,0,10.614V9.361A1.841,1.841,0,0,1,1.839,7.522h.424a8.066,8.066,0,0,1,.52-1.252l-.3-.3a1.839,1.839,0,0,1,0-2.6l.886-.886a1.839,1.839,0,0,1,2.6,0l.3.3a8.072,8.072,0,0,1,1.252-.52V1.839A1.841,1.841,0,0,1,9.361,0h1.254a1.841,1.841,0,0,1,1.839,1.839v.424a8.064,8.064,0,0,1,1.252.52l.3-.3a1.839,1.839,0,0,1,2.6,0l.886.886a1.839,1.839,0,0,1,0,2.6l-.3.3a8.065,8.065,0,0,1,.52,1.252h.424a1.841,1.841,0,0,1,1.839,1.839v1.254a1.841,1.841,0,0,1-1.839,1.839h-.424a8.067,8.067,0,0,1-.52,1.252l.3.3a1.839,1.839,0,0,1,0,2.6l-.886.886a1.839,1.839,0,0,1-2.6,0l-.3-.3a8.071,8.071,0,0,1-1.252.52v.424A1.841,1.841,0,0,1,10.614,19.975ZM6.465,15.963a6.9,6.9,0,0,0,1.788.742.585.585,0,0,1,.439.567v.864a.669.669,0,0,0,.668.668h1.254a.669.669,0,0,0,.668-.668v-.864a.585.585,0,0,1,.439-.567,6.9,6.9,0,0,0,1.788-.742.585.585,0,0,1,.712.09l.612.612a.668.668,0,0,0,.945,0l.887-.887a.668.668,0,0,0,0-.945l-.612-.612a.585.585,0,0,1-.09-.712,6.9,6.9,0,0,0,.742-1.788.585.585,0,0,1,.567-.439h.864a.669.669,0,0,0,.668-.668V9.361a.669.669,0,0,0-.668-.668h-.864a.585.585,0,0,1-.567-.439,6.9,6.9,0,0,0-.742-1.788.585.585,0,0,1,.09-.712l.612-.612a.668.668,0,0,0,0-.945l-.887-.887a.668.668,0,0,0-.945,0l-.612.612a.585.585,0,0,1-.712.09,6.9,6.9,0,0,0-1.788-.742.585.585,0,0,1-.439-.567V1.839a.669.669,0,0,0-.668-.668H9.361a.669.669,0,0,0-.668.668V2.7a.585.585,0,0,1-.439.567,6.9,6.9,0,0,0-1.788.742.585.585,0,0,1-.712-.09L5.141,3.31a.668.668,0,0,0-.945,0L3.31,4.2a.668.668,0,0,0,0,.945l.612.612a.585.585,0,0,1,.09.712A6.9,6.9,0,0,0,3.27,8.253a.585.585,0,0,1-.567.439H1.839a.669.669,0,0,0-.668.668v1.254a.669.669,0,0,0,.668.668H2.7a.585.585,0,0,1,.567.439,6.9,6.9,0,0,0,.742,1.788.585.585,0,0,1-.09.712l-.612.612a.668.668,0,0,0,0,.945l.887.887a.668.668,0,0,0,.945,0l.612-.612a.588.588,0,0,1,.712-.09Z" transform="translate(0 0)" fill="#fff" opacity="0.995"/>
        <path id="Path_11504" data-name="Path 11504" d="M4.346,8.692A4.346,4.346,0,1,1,8.692,4.346,4.351,4.351,0,0,1,4.346,8.692Zm0-7.522A3.176,3.176,0,1,0,7.522,4.346,3.179,3.179,0,0,0,4.346,1.17Z" transform="translate(5.641 5.641)" fill="#fff"/>
      </g>
    </g>
  </g>
</svg>
