<svg xmlns="http://www.w3.org/2000/svg" xmlns:xlink="http://www.w3.org/1999/xlink" width="687" height="487" viewBox="0 0 687 487">
  <defs>
    <linearGradient id="linear-gradient" x1="0.5" x2="0.5" y2="1" gradientUnits="objectBoundingBox">
      <stop offset="0" stop-color="#78b5c3"/>
      <stop offset="1" stop-color="#4c888e"/>
    </linearGradient>
  </defs>
  <g id="Group_21067" data-name="Group 21067" transform="translate(0 0)">
    <g id="Rectangle_5770" data-name="Rectangle 5770" transform="translate(448.8 402.386)" fill="#fff" stroke="#707070" stroke-width="1">
      <rect width="1" height="12" stroke="none"/>
      <rect x="0.5" y="0.5" height="11" fill="none"/>
    </g>
    <g id="Rectangle_5770-2" data-name="Rectangle 5770" transform="translate(448.8 402.386)" fill="#fff" stroke="#707070" stroke-width="1">
      <rect width="1" height="12" stroke="none"/>
      <rect x="0.5" y="0.5" height="11" fill="none"/>
    </g>
    <path id="Path_21884" data-name="Path 21884" d="M-4762.83,192.685h-318.731a9.07,9.07,0,0,1-9.043-9.04V-24.212a9.069,9.069,0,0,1,9.043-9.04h318.731a9.067,9.067,0,0,1,9.04,9.04V183.645a9.068,9.068,0,0,1-9.04,9.04" transform="translate(5298.609 273.668)" fill="#58627a"/>
    <path id="Path_21885" data-name="Path 21885" d="M-5080.7-30.523a7.185,7.185,0,0,0-7.179,7.176V184.509a7.185,7.185,0,0,0,7.179,7.176h318.731a7.182,7.182,0,0,0,7.176-7.176V-23.347a7.182,7.182,0,0,0-7.176-7.176H-5080.7m318.731,225.937H-5080.7a10.918,10.918,0,0,1-10.907-10.9V-23.347a10.918,10.918,0,0,1,10.907-10.9h318.731a10.917,10.917,0,0,1,10.9,10.9V184.509a10.917,10.917,0,0,1-10.9,10.9" transform="translate(5297.744 272.803)" fill="#435564"/>
    <path id="Path_21886" data-name="Path 21886" d="M-4762.83-33.252h-318.731a9.069,9.069,0,0,0-9.043,9.04v3.854a8.99,8.99,0,0,1,9.043-8.88h318.731a8.988,8.988,0,0,1,9.04,8.88v-3.854a9.067,9.067,0,0,0-9.04-9.04" transform="translate(5298.609 273.779)" fill="#6e7a91"/>
    <path id="Path_21887" data-name="Path 21887" d="M-4776.635,170.229H-5076.5c-4.974,0-9.042-3.764-9.042-8.367V-18.8c0-4.6,4.068-8.367,9.042-8.367h299.868c4.972,0,9.042,3.766,9.042,8.367V161.862c0,4.6-4.07,8.367-9.042,8.367" transform="translate(5302.985 278.93)" fill="url(#linear-gradient)"/>
    <path id="Path_21888" data-name="Path 21888" d="M-4925.306,21.272h-102.442V-7.5h102.442V21.272" transform="translate(5352.967 296.013)" fill="#96ccd1"/>
    <path id="Path_21889" data-name="Path 21889" d="M-5017.732,48.394h-59.974V19.627h59.974V48.394Z" transform="translate(5309.921 319.433)" fill="#96ccd1"/>
    <path id="Path_21890" data-name="Path 21890" d="M-4956.385,48.394h-59.974V19.627h59.974V48.394" transform="translate(5362.813 319.433)" fill="#96ccd1"/>
    <path id="Path_21891" data-name="Path 21891" d="M-4895.884,47.955h-59.975V19.186h59.975V47.955Z" transform="translate(5414.975 319.052)" fill="#96ccd1"/>
    <path id="Path_21892" data-name="Path 21892" d="M-4998.642,24.723h-1.274V10.259h1.274V24.723Z" transform="translate(5377.027 311.349)" fill="#96ccd1"/>
    <path id="Path_21893" data-name="Path 21893" d="M-4997.612,14.682h4.234l-2.118,3.665-2.116,3.667-2.115-3.667-2.118-3.665Z" transform="translate(5375.359 315.17)" fill="#96ccd1"/>
    <path id="Path_21894" data-name="Path 21894" d="M-4998.642,51.542h-1.274V37.078h1.274V51.542" transform="translate(5377.027 334.506)" fill="#f1bdc3"/>
    <path id="Path_21895" data-name="Path 21895" d="M-4997.612,41.5h4.234l-2.118,3.665-2.116,3.667-2.115-3.667-2.118-3.665h4.233" transform="translate(5375.359 338.327)" fill="#f1bdc3"/>
    <path id="Path_21896" data-name="Path 21896" d="M-5065.939,51.542h-1.277V37.078h1.277V51.542Z" transform="translate(5318.99 334.506)" fill="#96ccd1"/>
    <path id="Path_21897" data-name="Path 21897" d="M-5064.913,41.5h4.234l-2.116,3.665-2.118,3.667-2.116-3.667-2.115-3.665Z" transform="translate(5317.325 338.327)" fill="#96ccd1"/>
    <path id="Path_21898" data-name="Path 21898" d="M-5036.8,48.289l-.9.9-10.228-10.226.9-.9,10.229,10.23Z" transform="translate(5335.621 335.354)" fill="#96ccd1"/>
    <path id="Path_21899" data-name="Path 21899" d="M-5043.171,42.815l2.994-2.992,1.1,4.089,1.1,4.09-4.09-1.1-4.089-1.1,2.992-2.994Z" transform="translate(5337.144 336.878)" fill="#96ccd1"/>
    <path id="Path_21900" data-name="Path 21900" d="M-4934.319,51.542h1.275V37.078h-1.275V51.542Z" transform="translate(5433.596 334.506)" fill="#96ccd1"/>
    <path id="Path_21901" data-name="Path 21901" d="M-4932.014,41.5h-4.233l2.117,3.665,2.116,3.667,2.116-3.667,2.118-3.665Z" transform="translate(5431.927 338.327)" fill="#96ccd1"/>
    <path id="Path_21902" data-name="Path 21902" d="M-4958.895,48.289l.9.9,10.226-10.226-.9-.9-10.229,10.23Z" transform="translate(5412.396 335.354)" fill="#96ccd1"/>
    <path id="Path_21903" data-name="Path 21903" d="M-4953.891,42.815l-2.994-2.992-1.094,4.089-1.1,4.09,4.088-1.1,4.089-1.1-2.993-2.994Z" transform="translate(5412.242 336.878)" fill="#96ccd1"/>
    <path id="Path_21904" data-name="Path 21904" d="M-5020.063,28.275h-14.465V27h14.465v1.275Z" transform="translate(5347.173 325.809)" fill="#96ccd1"/>
    <path id="Path_21905" data-name="Path 21905" d="M-5027.794,29.3v4.236l-3.665-2.118-3.667-2.118,3.667-2.114,3.665-2.118V29.3Z" transform="translate(5346.662 324.141)" fill="#96ccd1"/>
    <path id="Path_21906" data-name="Path 21906" d="M-4959.051,28.275h-14.465V27h14.465v1.275" transform="translate(5399.785 325.809)" fill="#96ccd1"/>
    <path id="Path_21907" data-name="Path 21907" d="M-4969.093,29.3v4.236l3.668-2.118,3.667-2.118-3.667-2.114-3.668-2.118V29.3Z" transform="translate(5403.604 324.141)" fill="#96ccd1"/>
    <path id="Path_21908" data-name="Path 21908" d="M-5038.143,67.235a19.781,19.781,0,0,1-19.783,19.781,19.78,19.78,0,0,1-19.78-19.781,19.78,19.78,0,0,1,19.78-19.781,19.781,19.781,0,0,1,19.783,19.781Z" transform="translate(5309.93 343.426)" fill="#96ccd1"/>
    <path id="Path_21909" data-name="Path 21909" d="M-5005.04,66.8a19.781,19.781,0,0,1-19.781,19.781A19.782,19.782,0,0,1-5044.6,66.8a19.782,19.782,0,0,1,19.782-19.784A19.782,19.782,0,0,1-5005.04,66.8Z" transform="translate(5338.472 343.045)" fill="#96ccd1"/>
    <path id="Path_21910" data-name="Path 21910" d="M-4971.5,66.8a19.781,19.781,0,0,1-19.781,19.781A19.782,19.782,0,0,1-5011.06,66.8a19.782,19.782,0,0,1,19.782-19.784A19.782,19.782,0,0,1-4971.5,66.8" transform="translate(5367.395 343.045)" fill="#96ccd1"/>
    <path id="Path_21911" data-name="Path 21911" d="M-4937.951,66.8a19.784,19.784,0,0,1-19.783,19.781A19.783,19.783,0,0,1-4977.518,66.8a19.784,19.784,0,0,1,19.783-19.784A19.784,19.784,0,0,1-4937.951,66.8Z" transform="translate(5396.317 343.045)" fill="#96ccd1"/>
    <path id="Path_21912" data-name="Path 21912" d="M-4905.778,66.8a19.782,19.782,0,0,1-19.783,19.781A19.783,19.783,0,0,1-4945.343,66.8a19.784,19.784,0,0,1,19.782-19.784A19.783,19.783,0,0,1-4905.778,66.8Z" transform="translate(5424.06 343.045)" fill="#96ccd1"/>
    <path id="Path_21913" data-name="Path 21913" d="M-4741.482,105.4h-344.745a14.03,14.03,0,0,1-14.029-14.031,3.189,3.189,0,0,1,3.188-3.19h366.428a3.19,3.19,0,0,1,3.19,3.19,14.032,14.032,0,0,1-14.031,14.031Z" transform="translate(5290.258 378.631)" fill="#fff"/>
    <path id="Path_21914" data-name="Path 21914" d="M-5096.2,90.912a1.328,1.328,0,0,0-1.325,1.326,12.182,12.182,0,0,0,12.167,12.167h344.745a12.182,12.182,0,0,0,12.166-12.167,1.329,1.329,0,0,0-1.325-1.326H-5096.2m355.587,17.221h-344.745a15.912,15.912,0,0,1-15.894-15.9,5.059,5.059,0,0,1,5.052-5.054h366.428a5.06,5.06,0,0,1,5.055,5.054,15.913,15.913,0,0,1-15.9,15.9" transform="translate(5289.393 377.765)" fill="#435564"/>
    <path id="Path_21915" data-name="Path 21915" d="M-4854.572,93.605h-199.1V87.5a5.592,5.592,0,0,1,5.593-5.593h187.91a5.6,5.6,0,0,1,5.594,5.593v6.1" transform="translate(5330.553 373.208)" fill="#58627a"/>
    <path id="Path_21916" data-name="Path 21916" d="M-5050.94,92.605h195.367V88.367a3.732,3.732,0,0,0-3.729-3.729h-187.91a3.733,3.733,0,0,0-3.729,3.729v4.238m199.1,3.729h-202.825V88.367a7.465,7.465,0,0,1,7.457-7.457h187.91a7.465,7.465,0,0,1,7.458,7.457v7.966" transform="translate(5329.688 372.344)" fill="#435564"/>
    <path id="Path_21922" data-name="Path 21922" d="M-4998.642,45.322h-1.274V37.078h1.274v8.244" transform="translate(5377.027 334.508)" fill="#96ccd1"/>
    <path id="Path_21923" data-name="Path 21923" d="M-4997.612,48.833l-2.115-3.667-2.118-3.665h8.468l-2.118,3.665-2.116,3.667" transform="translate(5375.359 338.327)" fill="#96ccd1"/>
    <path id="Path_21930" data-name="Path 21930" d="M-4969.951,28.275h-3.564V27h4l-.433,1.275" transform="translate(5399.792 325.809)" fill="#c9f6ff"/>
    <path id="Path_21934" data-name="Path 21934" d="M-5080.7-30.523a7.185,7.185,0,0,0-7.179,7.176V184.509a7.185,7.185,0,0,0,7.179,7.176h318.731a7.184,7.184,0,0,0,7.178-7.176V-23.347a7.184,7.184,0,0,0-7.178-7.176Zm318.731,225.937H-5080.7a10.918,10.918,0,0,1-10.907-10.9V-23.347a10.918,10.918,0,0,1,10.907-10.9h318.731a10.919,10.919,0,0,1,10.906,10.9V184.509a10.919,10.919,0,0,1-10.906,10.9Z" transform="translate(5297.744 272.803)" fill="#435564"/>
    <path id="Path_21935" data-name="Path 21935" d="M-4986.469,159.936h-192.058a7.852,7.852,0,0,1-7.829-7.83V34.2a7.851,7.851,0,0,1,7.829-7.828h192.058a7.851,7.851,0,0,1,7.829,7.828V152.105a7.852,7.852,0,0,1-7.829,7.83" transform="translate(5216.283 325.2)" fill="#58627a"/>
    <path id="Path_21936" data-name="Path 21936" d="M-5177.661,29.1a5.972,5.972,0,0,0-5.966,5.964V152.97a5.972,5.972,0,0,0,5.966,5.966H-4985.6a5.972,5.972,0,0,0,5.965-5.966V35.061A5.971,5.971,0,0,0-4985.6,29.1h-192.058M-4985.6,162.664h-192.058a9.706,9.706,0,0,1-9.7-9.695V35.061a9.7,9.7,0,0,1,9.7-9.693H-4985.6a9.7,9.7,0,0,1,9.693,9.693V152.97a9.7,9.7,0,0,1-9.693,9.695" transform="translate(5215.417 324.336)" fill="#435564"/>
    <path id="Path_21937" data-name="Path 21937" d="M-5012.208,146.528h-163.623a4.434,4.434,0,0,1-4.421-4.42V36.3a4.434,4.434,0,0,1,4.421-4.422h163.623a4.433,4.433,0,0,1,4.418,4.422v105.8a4.432,4.432,0,0,1-4.418,4.42" transform="translate(5221.559 329.967)" fill="#ffbc07"/>
    <path id="Path_21938" data-name="Path 21938" d="M-5125.287,86.979h-51.829V35.15h51.829V86.979Z" transform="translate(5224.268 332.791)" fill="#fae4a9"/>
    <path id="Path_21939" data-name="Path 21939" d="M-5125.287,65.631h-51.829v5h51.829v-5Z" transform="translate(5224.268 359.137)" fill="#fae4a9"/>
    <path id="Path_21940" data-name="Path 21940" d="M-5044.6,35.15h-101.736v4.78H-5044.6V35.15" transform="translate(5250.742 332.844)" fill="#fae4a9"/>
    <path id="Path_21941" data-name="Path 21941" d="M-5044.6,40.207h-101.736v4.78H-5044.6v-4.78" transform="translate(5250.742 337.211)" fill="#fae4a9"/>
    <path id="Path_21942" data-name="Path 21942" d="M-5044.6,45.389h-101.736v4.782H-5044.6V45.389" transform="translate(5250.742 341.686)" fill="#fae4a9"/>
    <path id="Path_21943" data-name="Path 21943" d="M-5044.6,50.5h-101.736v4.778H-5044.6V50.5" transform="translate(5250.742 346.058)" fill="#fae4a9"/>
    <path id="Path_21944" data-name="Path 21944" d="M-5044.6,55.607h-101.736v4.78H-5044.6v-4.78" transform="translate(5250.742 350.473)" fill="#fae4a9"/>
    <path id="Path_21945" data-name="Path 21945" d="M-5044.6,60.664h-101.736v4.778H-5044.6V60.664" transform="translate(5250.742 354.844)" fill="#fae4a9"/>
    <path id="Path_21946" data-name="Path 21946" d="M-5044.6,65.846h-101.736v4.782H-5044.6V65.846" transform="translate(5250.742 359.323)" fill="#fae4a9"/>
    <path id="Path_21947" data-name="Path 21947" d="M-5044.6,70.955h-101.736v4.78H-5044.6v-4.78" transform="translate(5250.742 363.739)" fill="#fae4a9"/>
    <path id="Path_21948" data-name="Path 21948" d="M-5044.6,76.063h-101.736v4.782H-5044.6V76.063" transform="translate(5250.742 368.154)" fill="#fae4a9"/>
    <path id="Path_21949" data-name="Path 21949" d="M-5044.6,81.121h-101.736V85.9H-5044.6V81.121" transform="translate(5250.742 372.526)" fill="#fae4a9"/>
    <path id="Path_21950" data-name="Path 21950" d="M-5044.6,86.3h-101.736v4.782H-5044.6V86.3" transform="translate(5250.742 377.006)" fill="#fae4a9"/>
    <path id="Path_21951" data-name="Path 21951" d="M-5125.287,70.993h-51.829v5h51.829v-5" transform="translate(5224.268 363.772)" fill="#fae4a9"/>
    <path id="Path_21952" data-name="Path 21952" d="M-5125.287,76.355h-51.829v5h51.829v-5" transform="translate(5224.268 368.407)" fill="#fae4a9"/>
    <path id="Path_21953" data-name="Path 21953" d="M-5125.287,80.824h-51.829v5h51.829v-5" transform="translate(5224.268 372.269)" fill="#fae4a9"/>
    <path id="Path_21954" data-name="Path 21954" d="M-5125.287,86.186h-51.829v5h51.829v-5" transform="translate(5224.268 376.904)" fill="#fae4a9"/>
    <path id="Path_21955" data-name="Path 21955" d="M-5072.884,67.28a5.676,5.676,0,0,1-5.677,5.677,5.675,5.675,0,0,1-5.675-5.677,5.674,5.674,0,0,1,5.675-5.675,5.675,5.675,0,0,1,5.677,5.675Z" transform="translate(5304.31 355.657)" fill="#58627a"/>
    <path id="Path_21956" data-name="Path 21956" d="M-5077.7,64.334a3.815,3.815,0,0,0-3.811,3.811,3.816,3.816,0,0,0,3.811,3.813,3.817,3.817,0,0,0,3.813-3.813,3.817,3.817,0,0,0-3.812-3.811Zm0,11.352a7.548,7.548,0,0,1-7.539-7.541A7.549,7.549,0,0,1-5077.7,60.6a7.55,7.55,0,0,1,7.541,7.539,7.55,7.55,0,0,1-7.541,7.541Z" transform="translate(5303.446 354.793)" fill="#435564"/>
    <path id="Path_21958" data-name="Path 21958" d="M-5136.431,159.936h-22.215l.739-1.864h22.218l-.742,1.864m52.371-131.7h-22.215l.741-1.864h22.216l-.742,1.864" transform="translate(5240.232 325.2)" fill="#6b7985"/>
    <path id="Path_21961" data-name="Path 21961" d="M-5114.464,44.987h-22.216l1.9-4.78h22.216l-1.9,4.78" transform="translate(5259.084 337.211)" fill="#fff1c9"/>
    <path id="Path_21962" data-name="Path 21962" d="M-5116.526,50.171h-22.215l1.9-4.782h22.216l-1.9,4.782" transform="translate(5257.306 341.686)" fill="#fff1c9"/>
    <path id="Path_21963" data-name="Path 21963" d="M-5118.556,55.277h-22.216l1.9-4.778h22.216l-1.9,4.778" transform="translate(5255.555 346.058)" fill="#fff1c9"/>
    <path id="Path_21964" data-name="Path 21964" d="M-5120.588,60.387H-5142.8l1.9-4.78h22.216l-1.9,4.78" transform="translate(5253.926 350.473)" fill="#fff1c9"/>
    <path id="Path_21965" data-name="Path 21965" d="M-5122.6,65.443h-22.215l1.9-4.778h22.216l-1.9,4.778" transform="translate(5252.189 354.844)" fill="#fff1c9"/>
    <path id="Path_21966" data-name="Path 21966" d="M-5125.127,70.628h-21.209V68.1l.9-2.25h22.215l-1.9,4.782" transform="translate(5250.873 359.323)" fill="#fff1c9"/>
    <path id="Path_21967" data-name="Path 21967" d="M-5128.913,75.735h-17.423v-4.78h19.324l-1.9,4.78" transform="translate(5250.873 363.739)" fill="#fff1c9"/>
    <path id="Path_21968" data-name="Path 21968" d="M-5132.7,80.845h-13.637V76.063h15.538l-1.9,4.782" transform="translate(5250.873 368.154)" fill="#fff1c9"/>
    <path id="Path_21969" data-name="Path 21969" d="M-5136.449,85.9h-9.887V81.121h11.786l-1.9,4.778" transform="translate(5250.873 372.526)" fill="#fff1c9"/>
    <path id="Path_21970" data-name="Path 21970" d="M-5140.292,91.085h-6.044V86.3h7.946l-1.9,4.782" transform="translate(5250.873 377.006)" fill="#fff1c9"/>
    <path id="Path_21971" data-name="Path 21971" d="M-5147.773,81.355h-3.328l1.987-5h1.341v5" transform="translate(5246.755 368.407)" fill="#fff1c9"/>
    <path id="Path_21972" data-name="Path 21972" d="M-5146.237,85.822h-6.642l1.988-5h4.653v5" transform="translate(5245.219 372.269)" fill="#fff1c9"/>
    <path id="Path_21973" data-name="Path 21973" d="M-5144.394,91.186h-10.616l1.987-5h8.629v5" transform="translate(5243.376 376.904)" fill="#fff1c9"/>
    <path id="Path_21975" data-name="Path 21975" d="M-5128.254,159.936h-11.105l.739-1.864h11.108l-.742,1.864m52.373-131.7h-11.107l.563-1.417.472.045a7.73,7.73,0,0,0,2.713-.492h8.1l-.74,1.864" transform="translate(5256.764 325.2)" fill="#6b7985"/>
    <path id="Path_21977" data-name="Path 21977" d="M-5104.275,39.93h-11.108l1.9-4.78h11.107l-1.9,4.78" transform="translate(5277.451 332.844)" fill="#fff1c9"/>
    <path id="Path_21978" data-name="Path 21978" d="M-5106.286,44.987h-11.108l1.9-4.78h11.105l-1.9,4.78" transform="translate(5275.717 337.211)" fill="#fff1c9"/>
    <path id="Path_21979" data-name="Path 21979" d="M-5108.347,50.171h-11.107l1.9-4.782h11.106l-1.9,4.782" transform="translate(5273.939 341.686)" fill="#fff1c9"/>
    <path id="Path_21980" data-name="Path 21980" d="M-5110.38,55.277h-11.105l1.9-4.778h11.108l-1.9,4.778" transform="translate(5272.188 346.058)" fill="#fff1c9"/>
    <path id="Path_21981" data-name="Path 21981" d="M-5112.41,60.387h-11.108l1.9-4.78h11.106l-1.9,4.78" transform="translate(5270.436 350.473)" fill="#fff1c9"/>
    <path id="Path_21982" data-name="Path 21982" d="M-5114.422,65.443h-11.106l1.9-4.778h11.107l-1.9,4.778" transform="translate(5268.703 354.844)" fill="#fff1c9"/>
    <path id="Path_21983" data-name="Path 21983" d="M-5116.482,70.628h-11.107l1.9-4.782h11.107l-1.9,4.782" transform="translate(5266.924 359.323)" fill="#fff1c9"/>
    <path id="Path_21984" data-name="Path 21984" d="M-5118.513,75.735h-11.107l1.9-4.78h11.106l-1.9,4.78" transform="translate(5265.173 363.739)" fill="#fff1c9"/>
    <path id="Path_21985" data-name="Path 21985" d="M-5120.545,80.845h-11.106l1.9-4.782h11.108l-1.9,4.782" transform="translate(5263.421 368.154)" fill="#fff1c9"/>
    <path id="Path_21987" data-name="Path 21987" d="M-5124.618,91.085h-11.105l1.9-4.782h11.107l-1.9,4.782" transform="translate(5260.045 377.006)" fill="#fff1c9"/>
    <path id="Path_21988" data-name="Path 21988" d="M-5177.661,29.1a5.972,5.972,0,0,0-5.966,5.964V152.97a5.972,5.972,0,0,0,5.966,5.966H-4985.6a5.972,5.972,0,0,0,5.965-5.966V35.061A5.971,5.971,0,0,0-4985.6,29.1ZM-4985.6,162.664h-192.058a9.706,9.706,0,0,1-9.7-9.695V35.061a9.7,9.7,0,0,1,9.7-9.693H-4985.6a9.7,9.7,0,0,1,9.693,9.693V152.97a9.7,9.7,0,0,1-9.693,9.695Z" transform="translate(5215.417 324.336)" fill="#435564"/>
    <path id="Path_21989" data-name="Path 21989" d="M-4839.631,128.927H-4894.1a9.039,9.039,0,0,1-9.012-9.01V10.814A9.039,9.039,0,0,1-4894.1,1.8h54.466a9.036,9.036,0,0,1,9.012,9.01v109.1a9.036,9.036,0,0,1-9.012,9.01" transform="translate(5460.373 303.969)" fill="#58627a"/>
    <path id="Path_21990" data-name="Path 21990" d="M-4893.233,4.533a7.155,7.155,0,0,0-7.147,7.146v109.1a7.155,7.155,0,0,0,7.147,7.146h54.466a7.154,7.154,0,0,0,7.147-7.146V11.679a7.154,7.154,0,0,0-7.147-7.146h-54.466m54.466,127.123h-54.466a10.887,10.887,0,0,1-10.876-10.875V11.679A10.887,10.887,0,0,1-4893.233.8h54.466a10.887,10.887,0,0,1,10.876,10.875v109.1a10.887,10.887,0,0,1-10.876,10.875" transform="translate(5459.508 303.104)" fill="#435564"/>
    <path id="Path_21991" data-name="Path 21991" d="M-4843.5,111.23h-51.489a5.385,5.385,0,0,1-5.367-5.369V12a5.385,5.385,0,0,1,5.367-5.369h51.489A5.384,5.384,0,0,1-4838.131,12v93.861a5.384,5.384,0,0,1-5.368,5.369" transform="translate(5462.752 308.14)" fill="#004cba"/>
    <path id="Path_21992" data-name="Path 21992" d="M-4883.84,28.241h-9.218a4.362,4.362,0,0,1-4.35-4.35V14.673a4.362,4.362,0,0,1,4.35-4.35h9.218a4.363,4.363,0,0,1,4.35,4.35v9.219a4.363,4.363,0,0,1-4.35,4.35Z" transform="translate(5465.301 311.403)" fill="#fff"/>
    <path id="Path_21993" data-name="Path 21993" d="M-4883.84,43.726h-9.218a4.362,4.362,0,0,1-4.35-4.35V30.157a4.363,4.363,0,0,1,4.35-4.351h9.218a4.365,4.365,0,0,1,4.35,4.351v9.219a4.363,4.363,0,0,1-4.35,4.35" transform="translate(5465.301 324.772)" fill="#fff"/>
    <path id="Path_21994" data-name="Path 21994" d="M-4883.84,59.209h-9.218a4.362,4.362,0,0,1-4.35-4.35V45.641a4.361,4.361,0,0,1,4.35-4.35h9.218a4.362,4.362,0,0,1,4.35,4.35V54.86a4.363,4.363,0,0,1-4.35,4.35" transform="translate(5465.301 338.143)" fill="#fff"/>
    <path id="Path_21995" data-name="Path 21995" d="M-4855.41,13.218h-30.15v-2.5h30.15v2.5" transform="translate(5475.542 311.747)" fill="#fff"/>
    <path id="Path_21996" data-name="Path 21996" d="M-4855.41,16.315h-30.15v-2.5h30.15v2.5" transform="translate(5475.542 314.422)" fill="#fff"/>
    <path id="Path_21997" data-name="Path 21997" d="M-4855.41,19.412h-30.15v-2.5h30.15v2.5" transform="translate(5475.542 317.096)" fill="#fff"/>
    <path id="Path_21998" data-name="Path 21998" d="M-4855.41,28.7h-30.15V26.2h30.15v2.5" transform="translate(5475.542 325.118)" fill="#fff"/>
    <path id="Path_21999" data-name="Path 21999" d="M-4855.41,31.8h-30.15V29.3h30.15v2.5" transform="translate(5475.542 327.791)" fill="#e5f1c8"/>
    <path id="Path_22000" data-name="Path 22000" d="M-4855.41,34.9h-30.15v-2.5h30.15v2.5" transform="translate(5475.542 330.465)" fill="#e5f1c8"/>
    <path id="Path_22001" data-name="Path 22001" d="M-4855.41,44.187h-30.15v-2.5h30.15v2.5" transform="translate(5475.542 338.487)" fill="#e5f1c8"/>
    <path id="Path_22002" data-name="Path 22002" d="M-4855.41,47.284h-30.15v-2.5h30.15v2.5" transform="translate(5475.542 341.161)" fill="#e5f1c8"/>
    <path id="Path_22003" data-name="Path 22003" d="M-4855.41,50.379h-30.15v-2.5h30.15v2.5" transform="translate(5475.542 343.792)" fill="#e5f1c8"/>
    <path id="Path_22004" data-name="Path 22004" d="M-4868.717,5.593h-20.526a.965.965,0,0,1-.962-.964.963.963,0,0,1,.962-.96h20.526a.966.966,0,0,1,.964.96.968.968,0,0,1-.964.964" transform="translate(5471.526 305.663)" fill="#fff"/>
    <path id="Path_22005" data-name="Path 22005" d="M-4877.7,68.079a3.928,3.928,0,0,1-3.928,3.93,3.929,3.929,0,0,1-3.931-3.93,3.929,3.929,0,0,1,3.931-3.928,3.927,3.927,0,0,1,3.928,3.928" transform="translate(5475.542 357.858)" fill="#58627a"/>
    <path id="Path_22006" data-name="Path 22006" d="M-4880.766,66.88a2.068,2.068,0,0,0-2.066,2.064,2.068,2.068,0,0,0,2.066,2.066,2.067,2.067,0,0,0,2.063-2.066,2.067,2.067,0,0,0-2.063-2.064m0,7.858a5.8,5.8,0,0,1-5.795-5.794,5.8,5.8,0,0,1,5.795-5.793,5.8,5.8,0,0,1,5.792,5.793,5.8,5.8,0,0,1-5.792,5.794" transform="translate(5474.677 356.994)" fill="#435564"/>
    <path id="Path_22009" data-name="Path 22009" d="M-4870.485,70.854h-15.075l.215-1.864h.954a5.753,5.753,0,0,0,2.762.7,5.755,5.755,0,0,0,2.761-.7h8.6l-.215,1.864" transform="translate(5475.542 362.041)" fill="#63717e"/>
    <path id="Path_22011" data-name="Path 22011" d="M-4882.494,69.281a2.068,2.068,0,0,1-2.066-2.066,2.068,2.068,0,0,1,2.066-2.064,2.067,2.067,0,0,1,2.063,2.064,2.067,2.067,0,0,1-2.063,2.066" transform="translate(5476.406 358.722)" fill="#58627a"/>
    <path id="Path_22015" data-name="Path 22015" d="M-4862.771,3.669h-15.075l.212-1.864h15.075l-.212,1.864" transform="translate(5482.208 304.052)" fill="#63717e"/>
    <path id="Path_22017" data-name="Path 22017" d="M-4863.835,13.218h-15.074l.286-2.5h15.075l-.287,2.5" transform="translate(5481.289 311.747)" fill="#fff"/>
    <path id="Path_22018" data-name="Path 22018" d="M-4864.189,16.315h-15.075l.287-2.5h15.074l-.286,2.5" transform="translate(5480.982 314.422)" fill="#fff"/>
    <path id="Path_22019" data-name="Path 22019" d="M-4864.546,19.412h-15.075l.287-2.5h15.075l-.287,2.5" transform="translate(5480.675 317.096)" fill="#fff"/>
    <path id="Path_22020" data-name="Path 22020" d="M-4865.612,28.7h-15.075l.287-2.5h15.075l-.287,2.5" transform="translate(5479.754 325.118)" fill="#fff"/>
    <path id="Path_22021" data-name="Path 22021" d="M-4865.967,31.8h-15.075l.288-2.5h15.073l-.286,2.5" transform="translate(5479.446 327.791)" fill="#fff"/>
    <path id="Path_22022" data-name="Path 22022" d="M-4866.322,34.9H-4881.4l.288-2.5h15.075l-.287,2.5" transform="translate(5479.139 330.465)" fill="#fff"/>
    <path id="Path_22023" data-name="Path 22023" d="M-4867.39,44.187h-15.075l.29-2.5h15.075l-.29,2.5" transform="translate(5478.217 338.487)" fill="#fff"/>
    <path id="Path_22024" data-name="Path 22024" d="M-4867.745,47.284h-15.075l.287-2.5h15.075l-.287,2.5" transform="translate(5477.909 341.161)" fill="#fff"/>
    <path id="Path_22025" data-name="Path 22025" d="M-4868.1,50.379h-15.075l.288-2.5h15.074l-.287,2.5" transform="translate(5477.603 343.792)" fill="#fff"/>
    <path id="Path_22028" data-name="Path 22028" d="M-4884.415,128.927h-7.295l.214-1.864h7.295l-.214,1.864m14.38-125.258h-7.3l.215-1.864h7.3l-.214,1.864" transform="translate(5470.225 303.969)" fill="#63717e"/>
    <path id="Path_22031" data-name="Path 22031" d="M-4877.763,13.218h-7.3l.286-2.5h7.3l-.287,2.5" transform="translate(5475.974 311.747)" fill="#fff"/>
    <path id="Path_22032" data-name="Path 22032" d="M-4878.119,16.315h-7.3l.289-2.5h7.295l-.287,2.5" transform="translate(5475.666 314.422)" fill="#fff"/>
    <path id="Path_22033" data-name="Path 22033" d="M-4878.657,19.412h-6.9v-2.5h7.191l-.288,2.5" transform="translate(5475.542 317.096)" fill="#e8f2d1"/>
    <path id="Path_22034" data-name="Path 22034" d="M-4880.646,28.7h-4.914V26.2h5.2l-.288,2.5" transform="translate(5475.542 325.118)" fill="#e8f2d1"/>
    <path id="Path_22036" data-name="Path 22036" d="M-4881.971,34.9h-3.589v-2.5h3.876l-.287,2.5" transform="translate(5475.542 330.465)" fill="#e8f2d1"/>
    <path id="Path_22037" data-name="Path 22037" d="M-4883.958,44.187h-1.6v-2.5h1.889l-.287,2.5" transform="translate(5475.542 338.487)" fill="#e8f2d1"/>
    <path id="Path_22038" data-name="Path 22038" d="M-4884.623,47.284h-.937v-2.5h1.225l-.287,2.5" transform="translate(5475.542 341.161)" fill="#e8f2d1"/>
    <path id="Path_22039" data-name="Path 22039" d="M-4885.284,50.379h-.276v-2.5h.563l-.286,2.5" transform="translate(5475.542 343.792)" fill="#e8f2d1"/>
    <path id="Path_22042" data-name="Path 22042" d="M-4893.233,4.533a7.155,7.155,0,0,0-7.147,7.146v109.1a7.155,7.155,0,0,0,7.147,7.146h54.466a7.154,7.154,0,0,0,7.147-7.146V11.679a7.154,7.154,0,0,0-7.147-7.146Zm54.466,127.123h-54.466a10.887,10.887,0,0,1-10.876-10.875V11.679A10.889,10.889,0,0,1-4893.233.8h54.466a10.888,10.888,0,0,1,10.876,10.875v109.1a10.887,10.887,0,0,1-10.876,10.875Z" transform="translate(5459.508 303.104)" fill="#435564"/>
    <path id="Path_22044" data-name="Path 22044" d="M-4979.359-14.181a24.382,24.382,0,0,0,24.5-23.357c.011-.347.016-.694.016-1.042A32.157,32.157,0,0,0-4987-70.738c-.313,0-.623.015-.934.024v-.024a14.337,14.337,0,0,0-14.337-14.337,14.258,14.258,0,0,0-8.476,2.778,37.083,37.083,0,0,0-35.289-25.7A37.066,37.066,0,0,0-5083-73.624a30.039,30.039,0,0,0-24.468,29.513A30.037,30.037,0,0,0-5086.557-15.5a29.7,29.7,0,0,0,9.026,1.316Z" transform="translate(5284.229 209.232)" fill="#eff5f6"/>
    <path id="Path_22045" data-name="Path 22045" d="M-4876.705,2.877a24.383,24.383,0,0,0,24.5-23.357c.011-.345.017-.694.017-1.04a32.158,32.158,0,0,0-32.158-32.158c-.312,0-.622.015-.934.024l0-.024a14.34,14.34,0,0,0-14.34-14.337,14.266,14.266,0,0,0-8.476,2.776,37.08,37.08,0,0,0-35.287-25.7,37.069,37.069,0,0,0-36.965,34.371,30.043,30.043,0,0,0-24.467,29.513A30.037,30.037,0,0,0-4983.9,1.561a29.706,29.706,0,0,0,9.027,1.316Z" transform="translate(5372.696 223.957)" fill="#eff5f6"/>
    <path id="Path_22046" data-name="Path 22046" d="M-5142.367-49.762a28,28,0,0,0-27.97,27.969,28,28,0,0,0,27.97,27.969A28,28,0,0,0-5114.4-21.793a28,28,0,0,0-27.969-27.969Zm0,59.667a31.734,31.734,0,0,1-31.7-31.7,31.734,31.734,0,0,1,31.7-31.7,31.734,31.734,0,0,1,31.7,31.7,31.734,31.734,0,0,1-31.7,31.7Z" transform="translate(5226.905 256.293)" fill="#4c888e"/>
    <path id="Path_22047" data-name="Path 22047" d="M-5155.934,9.66l-1.542-3.393A30.961,30.961,0,0,0-5139.35-21.87a30.96,30.96,0,0,0-18.126-28.135l1.542-3.4a34.7,34.7,0,0,1,20.313,31.532,34.693,34.693,0,0,1-20.312,31.53Z" transform="translate(5241.244 256.369)" fill="#4c888e"/>
    <path id="Path_22048" data-name="Path 22048" d="M-5149.369-48.645a31.036,31.036,0,0,0-15.49,26.781,30.746,30.746,0,0,0,15.49,26.785V-48.645Zm.964,57.951a2.728,2.728,0,0,1-1.242-.3,34.468,34.468,0,0,1-18.941-30.87,34.766,34.766,0,0,1,19.907-31.343,2.134,2.134,0,0,1,2.053.132,2.126,2.126,0,0,1,.989,1.8V6.532a2.756,2.756,0,0,1-1.328,2.366,2.741,2.741,0,0,1-1.437.408Z" transform="translate(5231.64 256.363)" fill="#4c888e"/>
    <path id="Path_22049" data-name="Path 22049" d="M-5170.573-40.883l-.6-3.678a160.612,160.612,0,0,1,26.9-2.107,160.7,160.7,0,0,1,24.917,2.107l-.6,3.678a156.938,156.938,0,0,0-24.337-2.056,157.8,157.8,0,0,0-26.272,2.056Z" transform="translate(5229.403 262.194)" fill="#4c888e"/>
    <path id="Path_22050" data-name="Path 22050" d="M-5145.287-23.607c-.324,0-.647,0-.972,0a161.032,161.032,0,0,1-24.916-2.107l.6-3.682a157.07,157.07,0,0,0,24.34,2.06,159.407,159.407,0,0,0,26.268-2.058l.606,3.678a160.489,160.489,0,0,1-25.928,2.112Z" transform="translate(5229.403 277.107)" fill="#4c888e"/>
    <path id="Path_22051" data-name="Path 22051" d="M-5114.129-33.76h-58.937v-3.729h58.937v3.729Z" transform="translate(5227.77 270.123)" fill="#4c888e"/>
    <path id="Path_22052" data-name="Path 22052" d="M-5086.362-73.4q-2.08,2.03-6.439,5.871,1.835,1.79,5.707,5.172a2.819,2.819,0,0,1,1.224,2.207,2.781,2.781,0,0,1-.943,2.071,3.144,3.144,0,0,1-2.241.895,5.924,5.924,0,0,1-3.427-1.738l-2.842-2.742a12.634,12.634,0,0,0-4.358-2.916q-2.474-.856-2.474-2.718,0-1.689,2.2-2.657a17.738,17.738,0,0,0,4.9-3.563q3.671-3.574,4.432-4.139a3.446,3.446,0,0,1,2.107-.759,3.166,3.166,0,0,1,2.238.882,2.725,2.725,0,0,1,.943,2.053,2.759,2.759,0,0,1-1.029,2.081Z" transform="translate(5288.855 234.778)" fill="#4c888e"/>
    <path id="Path_22053" data-name="Path 22053" d="M-5079.868-56.865a10.537,10.537,0,0,1-7.006-2.373,8.211,8.211,0,0,1-2.979-6.607,14.123,14.123,0,0,1,2.676-7.8q3.04-4.595,7.063-4.594a12.65,12.65,0,0,1,4.614,1.063q3.207,1.312,3.208,3.018a2.4,2.4,0,0,1-.645,1.652,2.246,2.246,0,0,1-1.767.779,3.464,3.464,0,0,1-1.964-.884,5.623,5.623,0,0,0-3.447-.884q-1.46,0-3.17,2.867a9.848,9.848,0,0,0-1.634,4.784,3.776,3.776,0,0,0,1.443,3.134,5.657,5.657,0,0,0,3.607,1.081,7.016,7.016,0,0,0,3.113-.968,7.638,7.638,0,0,1,2.334-.969,2.37,2.37,0,0,1,1.757.742,2.331,2.331,0,0,1,.73,1.689q0,1.479-3.228,2.961a12.112,12.112,0,0,1-4.707,1.311Z" transform="translate(5299.464 234.931)" fill="#4c888e"/>
    <path id="Path_22054" data-name="Path 22054" d="M-5068.988-72.966a4.11,4.11,0,0,0-3.682,2.125,7.733,7.733,0,0,0-1.14,4.215,4.569,4.569,0,0,0,1.292,3.494,3.373,3.373,0,0,0,2.391.968,4.088,4.088,0,0,0,2.867-1.12,4.953,4.953,0,0,0,1.48-3.55q.246-6.113-3.209-6.132Zm-1.139,15.795a8.44,8.44,0,0,1-6.037-2.411,9.7,9.7,0,0,1-2.9-7.044,11.594,11.594,0,0,1,2.295-7.48,9.447,9.447,0,0,1,8.032-3.872,7.116,7.116,0,0,1,6.036,3.037,11.112,11.112,0,0,1,2.012,6.777,12.1,12.1,0,0,1-2.354,7.517,8.436,8.436,0,0,1-7.082,3.475Z" transform="translate(5308.76 235.16)" fill="#4c888e"/>
    <path id="Path_22055" data-name="Path 22055" d="M-5053.519-66.488a4.315,4.315,0,0,0-1.633-1.784,4.64,4.64,0,0,0-2.393-.589,5.267,5.267,0,0,0-4.213,1.624,7.276,7.276,0,0,0-1.405,4.87,4.7,4.7,0,0,0,1.52,3.512,4.93,4.93,0,0,0,3.531,1.462,5.578,5.578,0,0,0,2.22-.343,9.937,9.937,0,0,0,1.747-1.214,6.4,6.4,0,0,0,.626-.589q-.037-.912,0-6.948Zm.381-5.981q.246-6.474.587-8.941a2.286,2.286,0,0,1,2.468-2.239,2.356,2.356,0,0,1,1.8.727,2.508,2.508,0,0,1,.684,1.784q0,2.78-.427,8.281t-.427,8.281a59.844,59.844,0,0,0,.437,9.089,2.984,2.984,0,0,1,.058.556,2.231,2.231,0,0,1-.759,1.736,2.571,2.571,0,0,1-1.768.679,2.232,2.232,0,0,1-2.088-1.251,7.632,7.632,0,0,1-2.676,1.014,16.942,16.942,0,0,1-2.866.237,9.749,9.749,0,0,1-7.062-2.715,9.4,9.4,0,0,1-2.868-7.062,11.719,11.719,0,0,1,2.886-8.248,9.758,9.758,0,0,1,7.538-3.141,9.69,9.69,0,0,1,2.543.3,5.686,5.686,0,0,1,1.938.91Z" transform="translate(5318.271 230.261)" fill="#4c888e"/>
    <path id="Path_22056" data-name="Path 22056" d="M-5045.713-73.465a4.255,4.255,0,0,0-3.019,1.178,8.205,8.205,0,0,0-2.011,3.531q2.143-.931,4.271-1.842a31.521,31.521,0,0,0,4.081-2.146,6.705,6.705,0,0,0-3.323-.722Zm.513,16.117a12.039,12.039,0,0,1-7.422-2.163,7.935,7.935,0,0,1-3.189-6.74,13.043,13.043,0,0,1,2.524-8.125,9.032,9.032,0,0,1,7.574-3.684A12.507,12.507,0,0,1-5040.227-77a4.6,4.6,0,0,1,2.868,4.366,4.544,4.544,0,0,1-2.336,3.7,30.071,30.071,0,0,1-4.271,2.165l-6.4,2.828a5.74,5.74,0,0,0,2.2,1.48,8.226,8.226,0,0,0,2.96.494A8.338,8.338,0,0,0-5040.89-63a5.452,5.452,0,0,1,2.524-.93,1.721,1.721,0,0,1,1.975,1.918q0,2.162-3.17,3.531a14.178,14.178,0,0,1-5.64,1.137Z" transform="translate(5328.817 235.09)" fill="#4c888e"/>
    <path id="Path_22057" data-name="Path 22057" d="M-5024.921-65.669a85.669,85.669,0,0,1-12.342,8.865,3.515,3.515,0,0,1-1.812.539,3.077,3.077,0,0,1-2.241-.906,2.858,2.858,0,0,1-.918-2.084,2.788,2.788,0,0,1,1.323-2.3q2.864-1.938,8.5-5.934a51.325,51.325,0,0,1-5.413-4.5q-3.283-3.082-3.28-4.329a2.657,2.657,0,0,1,.991-2.068,3.334,3.334,0,0,1,2.266-.869,3.247,3.247,0,0,1,2.375,1.078q5.484,5.632,9.821,7.715,1.983.956,1.982,2.521a3.039,3.039,0,0,1-1.25,2.278Z" transform="translate(5340.525 234.052)" fill="#4c888e"/>
    <path id="Path_22058" data-name="Path 22058" d="M-4974.253-66.578c2.065,1.208,9.428,3.011,21.573,3.011s19.5-1.8,21.57-3.011c-2.066-1.21-9.427-3.013-21.57-3.013s-19.508,1.8-21.573,3.013Zm21.573,6.947c-4.33,0-25.919-.336-25.919-6.947s21.589-6.948,25.919-6.948,25.914.336,25.914,6.948-21.59,6.947-25.914,6.947Z" transform="translate(5395.375 239.005)" fill="#4c888e"/>
    <path id="Path_22059" data-name="Path 22059" d="M-4952.68-54.541c-4.33,0-25.919-.334-25.919-6.945V-69.8h3.938v8.022c1.266,1.182,8.813,3.3,21.981,3.3s20.711-2.12,21.979-3.3V-69.8h3.935v8.313c0,6.611-21.59,6.945-25.914,6.945Z" transform="translate(5395.375 242.222)" fill="#4c888e"/>
    <path id="Path_22060" data-name="Path 22060" d="M-4952.68-49.261c-4.33,0-25.919-.336-25.919-6.948v-8.313h3.938V-56.5c1.266,1.184,8.813,3.3,21.981,3.3s20.711-2.118,21.979-3.3v-8.022h3.935v8.313c0,6.613-21.59,6.948-25.914,6.948Z" transform="translate(5395.375 246.778)" fill="#4c888e"/>
    <path id="Path_22061" data-name="Path 22061" d="M-4952.68-43.987c-4.33,0-25.919-.336-25.919-6.945v-8.313h3.938v8.02c1.266,1.184,8.813,3.3,21.981,3.3s20.711-2.12,21.979-3.3v-8.02h3.935v8.313c0,6.609-21.59,6.945-25.914,6.945Z" transform="translate(5395.375 251.335)" fill="#4c888e"/>
    <path id="Path_22062" data-name="Path 22062" d="M-4952.68-38.709c-4.33,0-25.919-.336-25.919-6.947v-8.313h3.938v8.022c1.266,1.182,8.813,3.3,21.981,3.3s20.711-2.12,21.979-3.3v-8.022h3.935v8.313c0,6.611-21.59,6.947-25.914,6.947Z" transform="translate(5395.375 255.891)" fill="#4c888e"/>
    <path id="Path_22063" data-name="Path 22063" d="M-4787.278-22.283a24.383,24.383,0,0,0,24.5-23.357c.009-.347.015-.694.015-1.042a32.155,32.155,0,0,0-32.156-32.156c-.313,0-.623.015-.935.024v-.024a14.335,14.335,0,0,0-14.335-14.337,14.262,14.262,0,0,0-8.477,2.776,37.083,37.083,0,0,0-35.287-25.7,37.066,37.066,0,0,0-36.964,34.371,30.037,30.037,0,0,0-24.466,29.513A30.038,30.038,0,0,0-4894.477-23.6a29.685,29.685,0,0,0,9.025,1.316Z" transform="translate(5449.764 202.237)" fill="#a0c7d1" opacity="0.15"/>
    <path id="Path_22064" data-name="Path 22064" d="M-5074.3-61.5a24.381,24.381,0,0,0,24.5-23.357c.012-.345.016-.692.016-1.04a32.156,32.156,0,0,0-32.156-32.158c-.313,0-.624.015-.934.024v-.024a14.337,14.337,0,0,0-14.337-14.337,14.274,14.274,0,0,0-8.476,2.776,37.085,37.085,0,0,0-35.289-25.7,37.067,37.067,0,0,0-36.963,34.371,30.041,30.041,0,0,0-24.466,29.513A30.04,30.04,0,0,0-5181.5-62.812a29.741,29.741,0,0,0,9.025,1.314Z" transform="translate(5202.408 168.391)" fill="#a0c7d1" opacity="0.15"/>
    <path id="Path_22065" data-name="Path 22065" d="M-4897.017-68.514a24.381,24.381,0,0,0,24.5-23.357c.011-.345.018-.694.018-1.042a32.157,32.157,0,0,0-32.157-32.156c-.312,0-.622.015-.934.022v-.022a14.336,14.336,0,0,0-14.335-14.337,14.258,14.258,0,0,0-8.478,2.776,37.084,37.084,0,0,0-35.288-25.7,37.066,37.066,0,0,0-36.963,34.371,30.039,30.039,0,0,0-24.468,29.513,30.035,30.035,0,0,0,20.909,28.614,29.673,29.673,0,0,0,9.023,1.316Z" transform="translate(5355.191 162.328)" fill="#a0c7d1" opacity="0.15"/>
    <path id="Path_22066" data-name="Path 22066" d="M-4894.661-86.746a2.994,2.994,0,0,1-1.348-4.013,2.994,2.994,0,0,1,4.016-1.346,2.991,2.991,0,0,1,1.343,4.013,2.991,2.991,0,0,1-4.011,1.346Zm81.55,17.5-2.031,4.083-4.338-2.158,1.185-2.381-3.827-1.906-2.2,4.424-2.8-1.4-3.927,7.889L-4865-77.583l2.135-4.287-3.39-1.685a17.673,17.673,0,0,0-9.763-16.993,17.674,17.674,0,0,0-23.7,7.948,17.674,17.674,0,0,0,7.949,23.7,17.677,17.677,0,0,0,19.444-2.461l-.1.2,3.387,1.685,2.232-4.487,49.252,24.505.85-1.706.948-1.907,6.973-14.014-4.338-2.159Z" transform="translate(5469.87 218.718)" fill="#4c888e"/>
    <path id="Path_22067" data-name="Path 22067" d="M-5121.51-109.145l.017-.293-.017.293Zm-.059.669.023-.205-.023.205Zm-.094.712.02-.134-.02.134Zm.181-2.019,0-.4,0,.4Zm-1.535,6.24.1-.211-.1.211Zm1.214-3.47.01-.045-.006.03,0,.015Zm-1.354,3.738-.222.408.222-.408Zm-4.133.25a11.311,11.311,0,0,1-15.9,1.78,11.312,11.312,0,0,1-1.78-15.9,11.313,11.313,0,0,1,15.9-1.78,11.312,11.312,0,0,1,1.781,15.9Zm-.959,5.293.2-.129-.2.129Zm.463-.306.392-.282-.392.282Zm-5.058,2.23.259-.062-.259.062Zm-.772.157.329-.062-.329.062Zm-.742.11.39-.054-.39.054Zm-.732.071.464-.041-.464.041Zm3.095-.559.141-.039-.032.009-.108.03Zm-3.87.595q.3-.006.593-.022-.311.017-.593.022Zm-7.99-27.1-.076.048.076-.048Zm.556-.328-.08.047.08-.047Zm.6-.319-.08.041.08-.041Zm.656-.309-.091.041.091-.041Zm.7-.289-.1.039.1-.039Zm-3.182,1.684-.337.242.337-.242Zm5.732-2.394-.316.06.316-.06Zm.89-.138c-.171.022-.345.045-.515.071.175-.028.348-.048.515-.071Zm-2.7.589-.056.019.045-.015.011,0Zm19.114,13.628c0-.188-.012-.375-.022-.563.011.181.018.367.022.563Zm-29.267-.574-.019.336.019-.336Zm.046-.58-.02.192.02-.192Zm.078-.645-.015.1.015-.1Zm.126-.725-.014.065.014-.065Zm-.276,2.532,0,.479,0-.479Zm.67-4.074-.011.026.011-.026Zm.247-.725,0,.013,0-.013Zm.277-.692-.023.06.023-.06Zm.31-.669-.08.17.08-.17Zm.358-.679-.173.319.173-.319Zm-1.411,3.533-.013.052,0-.024.009-.028Zm28.7,1.534c.046.328.087.714.115,1.141a14.649,14.649,0,0,0-1.509-5.589q1.891-2.142,3.781-4.288l-7.434-6.76q-1.884,2.041-3.771,4.083a14.63,14.63,0,0,0-7.3-1.059,14.564,14.564,0,0,1,2.282-.078q-.92-2.715-1.837-5.431l-9.565,3.072q.854,2.727,1.706,5.453l.146-.11a14.742,14.742,0,0,0-2.567,2.511,14.874,14.874,0,0,0-1.216,1.777c.213-.365.42-.69.6-.96l-5.577-1.32-2.466,9.739q2.766.722,5.529,1.445c-.037-.356-.064-.777-.074-1.245a14.636,14.636,0,0,0,3.833,9.592,14.762,14.762,0,0,1-2.479-3.628q-1.954,2.092-3.911,4.187l7.235,6.971,3.96-4.049a14.627,14.627,0,0,0,6.223,1.285c-.421.007-.8,0-1.131-.024q.872,2.732,1.745,5.461l9.615-2.908q-.8-2.741-1.612-5.481l-.011.007a14.567,14.567,0,0,0,2.63-2.562,14.788,14.788,0,0,0,1.234-1.807c-.108.19-.217.369-.316.528q2.813.557,5.625,1.109l2.094-9.827q-2.789-.615-5.58-1.234Z" transform="translate(5242.32 190.139)" fill="#4c888e"/>
    <path id="Path_22068" data-name="Path 22068" d="M-5134.251-120.248l-.133-.419.133.419Zm.274.973-.078-.3.078.3Zm.246,1.051-.043-.2.043.2Zm-.822-2.934q-.1-.285-.207-.565.105.274.207.565Zm1.163,9.587.032-.351-.032.351Zm-.138-5.524-.012-.063.008.043,0,.021Zm.088,5.977c-.03.241-.062.47-.1.69.035-.229.065-.459.1-.69Zm-5.68,2.55a17,17,0,0,1-21.4,10.961,17,17,0,0,1-10.96-21.4,17,17,0,0,1,21.4-10.961,17,17,0,0,1,10.958,21.4Zm1.471,7.948.215-.289-.215.289Zm.487-.677c.136-.2.272-.4.4-.6-.122.19-.256.392-.4.6Zm-5.923,5.826.33-.222-.33.222Zm-1,.63.427-.257-.427.257Zm-.984.55c.176-.091.348-.185.521-.282-.178.1-.349.192-.521.282Zm-.993.49c.213-.1.423-.2.632-.3-.215.106-.425.209-.632.3Zm4.053-2.433.175-.129-.039.032-.136.1Zm-5.123,2.9c.276-.11.548-.226.818-.347-.281.127-.555.242-.818.347Zm-25.649-33.832-.08.108.08-.108Zm.609-.759-.091.11.091-.11Zm.677-.77-.092.1.092-.1Zm.757-.783-.1.106.1-.106Zm.836-.779-.116.106.116-.106Zm-3.576,4.059c-.117.172-.234.343-.347.518.105-.166.223-.339.347-.518Zm6.782-6.413-.413.25.413-.25Zm1.179-.667c-.231.121-.461.244-.688.373.233-.134.461-.254.688-.373Zm-3.481,2.261-.067.056.055-.045.013-.011Zm34.116,8.986c-.1-.261-.214-.522-.33-.779q.168.372.33.779Zm-41.441,14.766.153.483-.153-.483Zm-.242-.839.073.28-.073-.28Zm-.232-.949.031.145-.031-.145Zm-.211-1.085.017.1-.017-.1Zm.96,3.7c.081.226.163.451.25.675-.084-.216-.166-.442-.25-.675Zm-1.229-6.083,0,.041,0-.041Zm-.037-1.148,0,.017,0-.017Zm.023-1.12,0,.093,0-.093Zm.081-1.107-.026.282.026-.282Zm.14-1.143c-.026.181-.05.36-.073.541.023-.186.047-.365.073-.541Zm-.1,5.718.01.078-.006-.037,0-.041Zm41.157-13.116c.24.436.5.958.769,1.542a22.062,22.062,0,0,0-5.094-7.053l3.032-8.037-14.043-5.548q-1.564,3.873-3.128,7.746a21.985,21.985,0,0,0-10.827,2.394,22.293,22.293,0,0,1,3.166-1.324q-2.735-3.328-5.47-6.654l-11.811,9.406q2.648,3.378,5.3,6.758l.146-.233a22.164,22.164,0,0,0-2.271,4.9,22.251,22.251,0,0,0-.764,3.143c.1-.626.221-1.191.338-1.67l-8.542,1.113,1.718,15,8.54-.912c-.24-.479-.506-1.057-.766-1.71a21.99,21.99,0,0,0,10.488,11.443,22.109,22.109,0,0,1-5.414-3.783q-1.636,3.985-3.271,7.968l13.879,5.947q1.705-3.9,3.411-7.8a21.936,21.936,0,0,0,9.432-1.5c-.589.233-1.133.423-1.6.569l5.356,6.745,11.969-9.2q-2.588-3.426-5.183-6.848l-.012.019a22.132,22.132,0,0,0,2.334-5,22.1,22.1,0,0,0,.773-3.2c-.052.326-.108.638-.163.914q4.245-.719,8.494-1.436l-2.284-14.926q-4.251.618-8.5,1.234Z" transform="translate(5217.262 178.57)" fill="#4c888e"/>
    <path id="Path_22069" data-name="Path 22069" d="M-4936.865-118.567a12.8,12.8,0,0,0-12.657-12.92l-20.462-.213a12.805,12.805,0,0,0-12.921,12.657v0a12.8,12.8,0,0,0,12.657,12.92l20.462.211a12.8,12.8,0,0,0,12.921-12.657Zm-53.714-.554a20.488,20.488,0,0,1,20.676-20.252l20.461.213a20.49,20.49,0,0,1,20.253,20.674,20.488,20.488,0,0,1-20.677,20.251l-20.46-.211a20.486,20.486,0,0,1-20.253-20.674Z" transform="translate(5385.038 182.168)" fill="#4c888e"/>
    <path id="Path_22070" data-name="Path 22070" d="M-4966.311-99.785a27.292,27.292,0,0,0,4.729-2.161,20.622,20.622,0,0,1-5.562-5.837,14.535,14.535,0,0,1-6.088,1.631l-18.791-.194-1.67-.017a12.722,12.722,0,0,1-7.125-2.261,12.783,12.783,0,0,1-5.532-10.66,12.8,12.8,0,0,1,12.92-12.657l4.854.05,7.8.08,7.812.08c.392.006.778.034,1.16.071l.265.028c.365.045.729.1,1.087.179l.213.05c.3.069.6.149.889.241l.272.082q.486.162.954.362l.308.138c.254.116.5.239.75.371l.231.121a12.875,12.875,0,0,1,5.419,5.968,13.243,13.243,0,0,1,.479,1.244l0,.007c.129.4.237.805.328,1.217l.028.108c.078.378.134.764.178,1.152l.032.211a13.2,13.2,0,0,1,.062,1.368v.006c0,.309-.033.613-.058.917a15.294,15.294,0,0,1-1.162,4.394,11.971,11.971,0,0,0,2.091,3.33,11.919,11.919,0,0,0,3.382,2.646,22.323,22.323,0,0,0,3.35-9.827l0,0,0-.086c.034-.425.058-.856.063-1.3,0-.462-.013-.919-.037-1.374l-.022-.343c-.031-.425-.072-.846-.129-1.264l-.01-.082c-.062-.455-.146-.9-.238-1.346l-.056-.255q-.142-.635-.321-1.255l-.013-.05c-.132-.451-.283-.895-.443-1.333l-.051-.127c-.164-.431-.337-.856-.528-1.273q-.3-.66-.651-1.294l-.007-.013a20.608,20.608,0,0,0-7.406-7.726l-.041-.024a20.36,20.36,0,0,0-2.625-1.331l-.142-.058c-.432-.177-.874-.343-1.321-.492l-.039-.013q-.672-.221-1.363-.393l-.254-.062c-.439-.106-.884-.2-1.336-.278l-.062-.011c-.46-.076-.926-.132-1.4-.177l-.328-.03c-.474-.037-.949-.065-1.432-.071l-10.832-.112-4.446-.045-5.186-.054a20.416,20.416,0,0,0-5.114.593,20.5,20.5,0,0,0-15.56,19.658,20.5,20.5,0,0,0,15.15,19.977,20.456,20.456,0,0,0,5.1.7l.827.007,19.634.2a21.4,21.4,0,0,0,7-1.307Z" transform="translate(5364.824 181.958)" fill="#4c888e"/>
    <path id="Path_22071" data-name="Path 22071" d="M-5046.62,38.68h-110.055V-10.983h1.864v47.8h108.19V38.68Z" transform="translate(5241.936 292.996)" fill="#abd6dd"/>
    <path id="Path_22072" data-name="Path 22072" d="M-5021.563,12.789h-1.864V2.436h-58.366V-50.94h-82.339V-102.4h1.864v49.6h82.339V.572h58.366V12.789Z" transform="translate(5235.49 214.055)" fill="#abd6dd"/>
    <path id="Path_22073" data-name="Path 22073" d="M-5067.239-22.22h-1.864V-55.154h1.864V-22.22Z" transform="translate(5317.363 254.864)" fill="#abd6dd"/>
    <path id="Path_22074" data-name="Path 22074" d="M-5009.7,27.445h-1.864V-73.133H-4972V-94.512h10.532v-18.1h1.864v19.965h-10.532v21.379H-5009.7V27.445Z" transform="translate(5366.956 205.238)" fill="#abd6dd"/>
    <path id="Path_22075" data-name="Path 22075" d="M-4877.379,19.959h-15.087V18.094h13.223V-48.512H-4919.5v-1.864h42.12V19.959Z" transform="translate(5446.339 258.98)" fill="#abd6dd"/>
    <path id="Path_22076" data-name="Path 22076" d="M-4844.738,49.143h-58.371V47.279h56.507V-63.65h1.864V49.143Z" transform="translate(5460.373 247.509)" fill="#abd6dd"/>
  </g>
</svg>
