<svg id="Group_11495" data-name="Group 11495" xmlns="http://www.w3.org/2000/svg" width="120" height="120" viewBox="0 0 120 120">
  <g id="Icon">
    <g id="Ellipse_2" data-name="Ellipse 2" fill="#0c58be" stroke="#fff" stroke-width="6">
      <circle cx="60" cy="60" r="60" stroke="none"/>
      <circle cx="60" cy="60" r="57" fill="none"/>
    </g>
  </g>
  <g id="Group_10666" data-name="Group 10666" transform="translate(41 41)">
    <rect id="Rectangle_495" data-name="Rectangle 495" width="38" height="38" fill="none"/>
    <g id="database" transform="translate(2.042 1.021)">
      <g id="Group_10652" data-name="Group 10652" transform="translate(22.754 4.07)">
        <g id="Group_10651" data-name="Group 10651">
          <path id="Path_11498" data-name="Path 11498" d="M324.7,57.959a.7.7,0,1,0,.7.7v0A.7.7,0,0,0,324.7,57.959Z" transform="translate(-324 -57.959)" fill="#fff"/>
        </g>
      </g>
      <g id="Group_10654" data-name="Group 10654" transform="translate(13.554 2.458)">
        <g id="Group_10653" data-name="Group 10653">
          <path id="Path_11499" data-name="Path 11499" d="M200.2,35.462A40.918,40.918,0,0,0,193.7,35a.7.7,0,1,0,0,1.4,39.51,39.51,0,0,1,6.265.442.7.7,0,1,0,.234-1.385Z" transform="translate(-193 -35)" fill="#fff"/>
        </g>
      </g>
      <g id="Group_10656" data-name="Group 10656" transform="translate(23.316 23.316)">
        <g id="Group_10655" data-name="Group 10655">
          <path id="Path_11500" data-name="Path 11500" d="M340.006,335.65a.7.7,0,0,0-.7.7,2.95,2.95,0,1,1-2.757-2.943.7.7,0,0,0,.091-1.4,4.354,4.354,0,1,0,4.07,4.345A.7.7,0,0,0,340.006,335.65Z" transform="translate(-332 -331.999)" fill="#fff"/>
        </g>
      </g>
      <g id="Group_10658" data-name="Group 10658" transform="translate(29.538 24.373)">
        <g id="Group_10657" data-name="Group 10657">
          <path id="Path_11501" data-name="Path 11501" d="M421.808,347.273l-.011-.011-.5.493.5-.5a.7.7,0,1,0-.993.993l.01.01a.7.7,0,0,0,1-.989Z" transform="translate(-420.594 -347.053)" fill="#fff"/>
        </g>
      </g>
      <g id="Group_10660" data-name="Group 10660">
        <g id="Group_10659" data-name="Group 10659">
          <path id="Path_11502" data-name="Path 11502" d="M35.424,25.831l-1.02-.254-.493-1.19.541-.9a.7.7,0,0,0-.105-.858l-1.637-1.637a.7.7,0,0,0-.858-.105l-.9.541-1.19-.493-.254-1.02a.7.7,0,0,0-.681-.533h-.314V4.775c0-1.445-1.546-2.674-4.47-3.552A35.454,35.454,0,0,0,14.256,0,35.454,35.454,0,0,0,4.47,1.223C1.546,2.1,0,3.33,0,4.775V31.182c0,1.445,1.546,2.674,4.47,3.552a35.455,35.455,0,0,0,9.786,1.223,43.736,43.736,0,0,0,4.545-.231.7.7,0,1,0-.147-1.4,42.336,42.336,0,0,1-4.4.223,34.038,34.038,0,0,1-9.382-1.163c-2.561-.769-3.47-1.67-3.47-2.207V24.566A10.9,10.9,0,0,0,4.47,25.932a35.455,35.455,0,0,0,9.786,1.223c1.076,0,2.149-.037,3.187-.111a.7.7,0,1,0-.1-1.4c-1.005.072-2.044.108-3.088.108a34.039,34.039,0,0,1-9.382-1.163c-2.561-.769-3.47-1.67-3.47-2.207V15.763A10.9,10.9,0,0,0,4.47,17.129a35.453,35.453,0,0,0,9.786,1.223,35.454,35.454,0,0,0,9.786-1.223,10.9,10.9,0,0,0,3.066-1.366v3.62h-.6a.7.7,0,0,0-.681.533l-.254,1.02-1.19.493-.9-.541a.7.7,0,0,0-.858.105l-1.637,1.637a.7.7,0,0,0-.105.858l.541.9-.493,1.19-1.02.254a.7.7,0,0,0-.533.681v2.314a.7.7,0,0,0,.532.681l1.02.254.493,1.19-.541.9a.7.7,0,0,0,.105.858l1.637,1.637a.7.7,0,0,0,.858.105l.9-.541,1.19.493.254,1.02a.7.7,0,0,0,.681.533h2.314a.7.7,0,0,0,.681-.533l.254-1.02,1.19-.493.9.541a.7.7,0,0,0,.858-.105l1.637-1.637a.7.7,0,0,0,.105-.858l-.541-.9.493-1.19,1.02-.254a.7.7,0,0,0,.532-.681V26.513A.7.7,0,0,0,35.424,25.831ZM4.874,2.568A34.039,34.039,0,0,1,14.256,1.4a34.039,34.039,0,0,1,9.382,1.163c2.561.769,3.47,1.67,3.47,2.207s-.909,1.438-3.47,2.207a34.038,34.038,0,0,1-9.382,1.163A34.038,34.038,0,0,1,4.874,6.982C2.313,6.212,1.4,5.312,1.4,4.775S2.313,3.337,4.874,2.568ZM23.638,15.784a34.039,34.039,0,0,1-9.382,1.163,34.039,34.039,0,0,1-9.382-1.163c-2.561-.769-3.47-1.67-3.47-2.207V6.961A10.9,10.9,0,0,0,4.47,8.327,35.453,35.453,0,0,0,14.256,9.55a35.454,35.454,0,0,0,9.786-1.223,10.9,10.9,0,0,0,3.066-1.366v6.617C27.108,14.114,26.2,15.015,23.638,15.784ZM34.552,28.278l-.831.207a.7.7,0,0,0-.479.413l-.764,1.844a.7.7,0,0,0,.047.631l.441.733-.861.861-.733-.441a.7.7,0,0,0-.631-.047l-1.844.764a.7.7,0,0,0-.413.479l-.207.831H27.062l-.207-.831a.7.7,0,0,0-.413-.479L24.6,32.479a.7.7,0,0,0-.631.047l-.733.441-.861-.861.441-.733a.7.7,0,0,0,.047-.631L22.1,28.9a.7.7,0,0,0-.479-.413l-.831-.207V27.062l.83-.207a.7.7,0,0,0,.479-.413l.764-1.844a.7.7,0,0,0-.047-.631l-.441-.733.861-.861.733.441a.7.7,0,0,0,.631.047l1.844-.764a.7.7,0,0,0,.413-.479l.207-.831h1.217l.207.831a.7.7,0,0,0,.413.479l1.844.764a.7.7,0,0,0,.631-.047l.733-.441.861.861-.441.733a.7.7,0,0,0-.047.631l.764,1.844a.7.7,0,0,0,.479.413l.831.207Z" transform="translate(0 0)" fill="#fff"/>
        </g>
      </g>
    </g>
  </g>
</svg>
