<svg id="Group_10671" data-name="Group 10671" xmlns="http://www.w3.org/2000/svg" width="120" height="120" viewBox="0 0 120 120">
  <g id="Icon">
    <g id="Ellipse_2" data-name="Ellipse 2" fill="#52909d" stroke="#fff" stroke-width="6">
      <circle cx="60" cy="60" r="60" stroke="none"/>
      <circle cx="60" cy="60" r="57" fill="none"/>
    </g>
  </g>
  <g id="Group_10665" data-name="Group 10665" transform="translate(41 41)">
    <rect id="Rectangle_497" data-name="Rectangle 497" width="38" height="38" fill="none"/>
    <g id="solution" transform="translate(4)">
      <path id="Path_11496" data-name="Path 11496" d="M45.871,1H37.29a1.841,1.841,0,0,0-1.839,1.839V4.065a2.452,2.452,0,0,0,0,4.9v3.065h4.9V10.806a1.226,1.226,0,1,1,2.452,0v1.226h3.065a1.841,1.841,0,0,0,1.839-1.839V2.839A1.841,1.841,0,0,0,45.871,1Zm.613,9.194a.614.614,0,0,1-.613.613H44.032a2.452,2.452,0,1,0-4.9,0H36.677V7.742H35.452a1.226,1.226,0,0,1,0-2.452h1.226V2.839a.614.614,0,0,1,.613-.613h8.581a.614.614,0,0,1,.613.613Z" transform="translate(-17.065 -1)" fill="#fff"/>
      <path id="Path_11497" data-name="Path 11497" d="M25.387,15.581a2.454,2.454,0,0,0-2.452,2.452H20.484V14.968H19.258a1.226,1.226,0,0,1,0-2.452h1.226V7H18.841a11.84,11.84,0,0,0-7.5,21l2.4,1.963v1.662a1.828,1.828,0,0,0,.135,3.494A1.821,1.821,0,0,0,15,37.543a4.287,4.287,0,0,0,8.514,0,1.822,1.822,0,0,0,1.124-2.42,1.828,1.828,0,0,0,.135-3.494V29.967L27.173,28a11.8,11.8,0,0,0,4.343-9.163v-.808H27.839A2.454,2.454,0,0,0,25.387,15.581ZM18.841,8.226h.417V11.29a2.452,2.452,0,1,0,0,4.9v1.839H16.806a2.452,2.452,0,1,0-4.9,0H8.256A10.629,10.629,0,0,1,18.841,8.226Zm-6.722,18.83a10.569,10.569,0,0,1-3.885-7.8h4.895V18.032a1.226,1.226,0,0,1,2.452,0v1.226h3.677V21.71a2.452,2.452,0,0,0,0,4.9v4.9h-4.29V29.387ZM19.258,40.1a3.07,3.07,0,0,1-3-2.452h6.005A3.07,3.07,0,0,1,19.258,40.1Zm3.677-3.677H15.581a.613.613,0,0,1,0-1.226h7.355a.613.613,0,0,1,0,1.226Zm1.226-2.452H14.355a.613.613,0,1,1,0-1.226h9.806a.613.613,0,1,1,0,1.226ZM26.4,27.056l-2.849,2.331v2.129H20.484V25.387H19.258a1.226,1.226,0,1,1,0-2.452h1.226V19.258h3.677V18.032a1.226,1.226,0,0,1,2.452,0v1.226h3.669A10.569,10.569,0,0,1,26.4,27.056Z" transform="translate(-7 -3.323)" fill="#fff"/>
    </g>
  </g>
</svg>
