<svg id="Group_10669" data-name="Group 10669" xmlns="http://www.w3.org/2000/svg" width="120" height="120" viewBox="0 0 120 120">
  <g id="Icon">
    <g id="Ellipse_2" data-name="Ellipse 2" fill="#5392a0" stroke="#fff" stroke-width="6" opacity="0.999">
      <circle cx="60" cy="60" r="60" stroke="none"/>
      <circle cx="60" cy="60" r="57" fill="none"/>
    </g>
  </g>
  <g id="Group_10663" data-name="Group 10663" transform="translate(41 41)">
    <rect id="Rectangle_496" data-name="Rectangle 496" width="38" height="38" fill="none"/>
    <g id="settings" transform="translate(0.394 0)">
      <path id="Path_11503" data-name="Path 11503" d="M19.774,37.212H17.438a3.43,3.43,0,0,1-3.426-3.426V33a15.023,15.023,0,0,1-2.333-.968l-.56.56a3.426,3.426,0,0,1-4.845,0L4.624,30.937a3.425,3.425,0,0,1,0-4.845l.559-.559A15.024,15.024,0,0,1,4.216,23.2h-.79A3.43,3.43,0,0,1,0,19.774V17.438a3.43,3.43,0,0,1,3.426-3.426h.79a15.027,15.027,0,0,1,.968-2.333l-.56-.56a3.426,3.426,0,0,1,0-4.845L6.275,4.624a3.425,3.425,0,0,1,4.845,0l.559.559a15.037,15.037,0,0,1,2.333-.968v-.79A3.43,3.43,0,0,1,17.438,0h2.335A3.43,3.43,0,0,1,23.2,3.426v.79a15.022,15.022,0,0,1,2.333.968l.56-.56a3.426,3.426,0,0,1,4.845,0l1.651,1.651a3.425,3.425,0,0,1,0,4.845l-.559.559A15.024,15.024,0,0,1,33,14.013h.79a3.43,3.43,0,0,1,3.426,3.426v2.335A3.43,3.43,0,0,1,33.786,23.2H33a15.027,15.027,0,0,1-.968,2.333l.56.56a3.426,3.426,0,0,1,0,4.845l-1.651,1.651a3.425,3.425,0,0,1-4.845,0l-.559-.559A15.036,15.036,0,0,1,23.2,33v.79A3.429,3.429,0,0,1,19.774,37.212Zm-7.729-7.474a12.851,12.851,0,0,0,3.331,1.383,1.09,1.09,0,0,1,.818,1.056v1.61a1.247,1.247,0,0,0,1.245,1.245h2.335a1.247,1.247,0,0,0,1.245-1.245v-1.61a1.09,1.09,0,0,1,.818-1.056,12.851,12.851,0,0,0,3.331-1.383,1.09,1.09,0,0,1,1.326.168l1.14,1.14a1.245,1.245,0,0,0,1.761,0l1.652-1.652a1.245,1.245,0,0,0,0-1.761l-1.141-1.141a1.09,1.09,0,0,1-.168-1.326,12.848,12.848,0,0,0,1.383-3.331,1.09,1.09,0,0,1,1.056-.818h1.61a1.247,1.247,0,0,0,1.245-1.245V17.438a1.247,1.247,0,0,0-1.245-1.245h-1.61a1.09,1.09,0,0,1-1.056-.818,12.851,12.851,0,0,0-1.383-3.331,1.09,1.09,0,0,1,.168-1.326l1.14-1.14a1.245,1.245,0,0,0,0-1.761L29.4,6.166a1.245,1.245,0,0,0-1.761,0L26.494,7.306a1.09,1.09,0,0,1-1.326.168,12.851,12.851,0,0,0-3.331-1.383,1.09,1.09,0,0,1-.818-1.056V3.426A1.247,1.247,0,0,0,19.774,2.18H17.438a1.247,1.247,0,0,0-1.245,1.245v1.61a1.09,1.09,0,0,1-.818,1.056,12.851,12.851,0,0,0-3.331,1.383,1.09,1.09,0,0,1-1.326-.168l-1.14-1.14a1.245,1.245,0,0,0-1.761,0L6.166,7.817a1.245,1.245,0,0,0,0,1.761l1.141,1.141a1.09,1.09,0,0,1,.168,1.326,12.848,12.848,0,0,0-1.383,3.331,1.09,1.09,0,0,1-1.056.818H3.426A1.247,1.247,0,0,0,2.18,17.438v2.335a1.247,1.247,0,0,0,1.245,1.245h1.61a1.09,1.09,0,0,1,1.056.818,12.851,12.851,0,0,0,1.383,3.331,1.09,1.09,0,0,1-.168,1.326l-1.14,1.14a1.245,1.245,0,0,0,0,1.761l1.652,1.652a1.245,1.245,0,0,0,1.761,0l1.141-1.141a1.1,1.1,0,0,1,1.326-.167Z" transform="translate(0 0)" fill="#fff"/>
      <path id="Path_11504" data-name="Path 11504" d="M152.7,160.793a8.1,8.1,0,1,1,8.1-8.1A8.106,8.106,0,0,1,152.7,160.793Zm0-14.013a5.916,5.916,0,1,0,5.916,5.916A5.923,5.923,0,0,0,152.7,146.78Z" transform="translate(-134.091 -134.091)" fill="#fff"/>
    </g>
  </g>
</svg>
