<svg id="service-texture3" xmlns="http://www.w3.org/2000/svg" width="27.06" height="28.275" viewBox="0 0 27.06 28.275">
  <rect id="Rectangle_497" data-name="Rectangle 497" width="27.06" height="27.06" transform="translate(0 1.215)" fill="none"/>
  <g id="solution" transform="translate(3.235 0)">
    <path id="Path_11496" data-name="Path 11496" d="M41.834,1H35.945a1.263,1.263,0,0,0-1.262,1.262V3.1a1.683,1.683,0,0,0,0,3.365v2.1h3.365V7.73a.841.841,0,1,1,1.683,0v.841h2.1A1.263,1.263,0,0,0,43.1,7.31V2.262A1.263,1.263,0,0,0,41.834,1Zm.421,6.31a.421.421,0,0,1-.421.421H40.572a1.683,1.683,0,0,0-3.365,0H35.524v-2.1h-.841a.841.841,0,1,1,0-1.683h.841V2.262a.421.421,0,0,1,.421-.421h5.889a.421.421,0,0,1,.421.421Z" transform="translate(-22.063 -1)" fill="#fff"/>
    <path id="Path_11497" data-name="Path 11497" d="M19.619,12.889a1.684,1.684,0,0,0-1.683,1.683H16.254v-2.1h-.841a.841.841,0,0,1,0-1.683h.841V7H15.126A8.126,8.126,0,0,0,9.981,21.416l1.646,1.347V23.9a1.255,1.255,0,0,0,.093,2.4,1.25,1.25,0,0,0,.771,1.661,2.942,2.942,0,0,0,5.844,0,1.25,1.25,0,0,0,.771-1.661,1.255,1.255,0,0,0,.093-2.4v-1.14l1.646-1.347a8.1,8.1,0,0,0,2.981-6.289v-.555H21.3A1.684,1.684,0,0,0,19.619,12.889ZM15.126,7.841h.286v2.1a1.683,1.683,0,0,0,0,3.365v1.262H13.73a1.683,1.683,0,0,0-3.365,0h-2.5A7.3,7.3,0,0,1,15.126,7.841ZM10.513,20.765a7.254,7.254,0,0,1-2.666-5.352h3.359v-.841a.841.841,0,0,1,1.683,0v.841h2.524V17.1a1.683,1.683,0,0,0,0,3.365v3.365H12.468V22.364Zm4.9,8.95a2.107,2.107,0,0,1-2.061-1.683h4.121A2.107,2.107,0,0,1,15.413,29.715Zm2.524-2.524H12.889a.421.421,0,0,1,0-.841h5.048a.421.421,0,0,1,0,.841Zm.841-1.683h-6.73a.421.421,0,0,1,0-.841h6.73a.421.421,0,0,1,0,.841Zm1.535-4.744-1.955,1.6v1.461h-2.1V19.619h-.841a.841.841,0,0,1,0-1.683h.841V15.413h2.524v-.841a.841.841,0,1,1,1.683,0v.841h2.518A7.254,7.254,0,0,1,20.313,20.765Z" transform="translate(-7 -4.476)" fill="#fff"/>
  </g>
</svg>
