<svg id="Group_10670" data-name="Group 10670" xmlns="http://www.w3.org/2000/svg" width="120" height="120" viewBox="0 0 120 120">
  <g id="Group_10614" data-name="Group 10614">
    <g id="Ellipse_2" data-name="Ellipse 2" fill="#5493a1" stroke="#fff" stroke-width="6">
      <circle cx="60" cy="60" r="60" stroke="none"/>
      <circle cx="60" cy="60" r="57" fill="none"/>
    </g>
  </g>
  <g id="Group_10664" data-name="Group 10664" transform="translate(41.002 41)">
    <rect id="Rectangle_494" data-name="Rectangle 494" width="38" height="38" transform="translate(0.01 0)" fill="none"/>
    <g id="project-management" transform="translate(0 0)">
      <g id="Group_10632" data-name="Group 10632" transform="translate(0 0.157)">
        <g id="Group_10631" data-name="Group 10631" transform="translate(0 0)">
          <path id="Path_11493" data-name="Path 11493" d="M37.47,11.876h0l-2.453-.35a.631.631,0,0,1-.289-1.129l1.983-1.487a.631.631,0,0,0,.126-.883L34.564,5a.631.631,0,0,0-.883-.126L31.7,6.359a.631.631,0,0,1-1.005-.594l.351-2.453a.631.631,0,0,0-.535-.714h0l-3.744-.535a.631.631,0,0,0-.714.535h0L25.7,5.052a.631.631,0,0,1-1.129.289L23.084,3.358a.631.631,0,0,0-.883-.126l-1.9,1.422a12.2,12.2,0,0,0-2.58,0A11.984,11.984,0,0,0,7.16,15.4c-.017.178-.023.356-.032.533H6.938a.631.631,0,0,0-.617.5L5.886,18.51l-1.746-1.2a.631.631,0,0,0-.8.073L1.444,19.271a.631.631,0,0,0-.073.8l1.2,1.743L.5,22.253a.631.631,0,0,0-.5.617v2.523a.631.631,0,0,0,.5.617l2.073.436-1.2,1.743a.631.631,0,0,0,.073.8l1.892,1.892a.631.631,0,0,0,.8.073l1.743-1.2.436,2.073a.631.631,0,0,0,.617.5H9.463a.631.631,0,0,0,.617-.5l.436-2.073,1.743,1.2a.631.631,0,0,0,.8-.073l.979-.983v1.8A2.515,2.515,0,0,0,15.3,33.873v3.5A2.523,2.523,0,0,0,17.826,39.9h2.523a2.523,2.523,0,0,0,2.523-2.523v-3.5A2.515,2.515,0,0,0,24.134,31.7V29.2a3.09,3.09,0,0,1,1.459-2.575,12.1,12.1,0,0,0,1.485-1.135l-.841-.94a10.737,10.737,0,0,1-1.329,1.016A4.344,4.344,0,0,0,22.872,29.2v2.5a1.261,1.261,0,0,1-1.261,1.261H16.565A1.261,1.261,0,0,1,15.3,31.7V29.152a4.243,4.243,0,0,0-2-3.56A10.69,10.69,0,0,1,18.952,5.851a.685.685,0,0,0-.025.069.631.631,0,0,0,.12.467l1.487,1.982a.617.617,0,0,1,.038.7.627.627,0,0,1-.631.3l-2.453-.351a.631.631,0,0,0-.714.535h0L16.239,13.3a.631.631,0,0,0,.535.714h0l2.453.351a.631.631,0,0,1,.289,1.129l-1.982,1.487a.631.631,0,0,0-.126.883l2.271,3.027a.631.631,0,0,0,.883.126l1.983-1.487a.631.631,0,0,1,1,.593L23.2,22.58a.631.631,0,0,0,.535.714h0l3.746.535a.7.7,0,0,0,.089.006.631.631,0,0,0,.625-.541l.35-2.453a.631.631,0,0,1,1.129-.289l1.487,1.982a.631.631,0,0,0,.883.126l3.027-2.271a.631.631,0,0,0,.126-.883l-1.487-1.982a.62.62,0,0,1-.038-.7.612.612,0,0,1,.631-.3l2.453.35a.631.631,0,0,0,.714-.535h0L38,12.59A.631.631,0,0,0,37.47,11.876Zm-20.9,22.347h5.046v1.261H16.565Zm0,2.523h5.046v.631a1.261,1.261,0,0,1-1.261,1.261H17.826a1.261,1.261,0,0,1-1.261-1.261ZM11.544,25.869a11.921,11.921,0,0,0,1.078.785,3.079,3.079,0,0,1,1.271,1.614l-1.353,1.35-1.31-.9a1.261,1.261,0,0,0-1.95.779l-.33,1.575H7.45L7.119,29.5a1.261,1.261,0,0,0-1.95-.779l-1.311.9L2.71,28.472l.9-1.309a1.261,1.261,0,0,0-.778-1.951l-1.572-.331v-1.5l1.572-.331A1.261,1.261,0,0,0,3.613,21.1l-.9-1.313,1.149-1.147,1.311.9a1.261,1.261,0,0,0,1.95-.78l.11-.525a12.011,12.011,0,0,0,.5,2.139,3.784,3.784,0,1,0,3.814,5.487Zm-.979-.889A2.519,2.519,0,1,1,8.2,21.609h.024A11.945,11.945,0,0,0,10.564,24.981Zm25.742-9.449-1.829-.261A1.892,1.892,0,0,0,32.7,18.279L33.8,19.757,31.786,21.27l-1.109-1.477a1.892,1.892,0,0,0-3.387.867l-.255,1.832-2.5-.357.261-1.829a1.892,1.892,0,0,0-3.008-1.782l-1.478,1.108L18.8,17.614l1.477-1.109a1.892,1.892,0,0,0-.867-3.387l-1.829-.261.357-2.5,1.829.261a1.892,1.892,0,0,0,1.782-3.009L20.436,6.134,22.454,4.62,23.563,6.1a1.892,1.892,0,0,0,3.387-.867L27.211,3.4l2.5.356-.261,1.829a1.892,1.892,0,0,0,3.009,1.781L33.933,6.26l1.514,2.018L33.969,9.387a1.892,1.892,0,0,0,.867,3.387l1.829.261Z" transform="translate(0 -2.057)" fill="#fff"/>
        </g>
      </g>
      <g id="Group_10634" data-name="Group 10634" transform="translate(22.075 6)">
        <g id="Group_10633" data-name="Group 10633">
          <path id="Path_11494" data-name="Path 11494" d="M285.046,76.171a5.046,5.046,0,1,0,5.046,5.046A5.046,5.046,0,0,0,285.046,76.171Zm0,8.83a3.784,3.784,0,1,1,3.784-3.784A3.784,3.784,0,0,1,285.046,85Z" transform="translate(-280 -76.171)" fill="#fff"/>
        </g>
      </g>
      <g id="Group_10636" data-name="Group 10636" transform="translate(18.457 27.908)">
        <g id="Group_10635" data-name="Group 10635">
          <rect id="Rectangle_554" data-name="Rectangle 554" width="1.261" height="1.892" fill="#fff"/>
        </g>
      </g>
      <g id="Group_10638" data-name="Group 10638" transform="translate(10.253 7.192)">
        <g id="Group_10637" data-name="Group 10637">
          <path id="Path_11495" data-name="Path 11495" d="M136.121,105.813a7.569,7.569,0,0,1-1.278-13.455l-.674-1.067a8.83,8.83,0,0,0,1.494,15.7,4.027,4.027,0,0,1,2.586,3.759h1.261A5.277,5.277,0,0,0,136.121,105.813Z" transform="translate(-130.044 -91.291)" fill="#fff"/>
        </g>
      </g>
      <g id="Group_10640" data-name="Group 10640" transform="translate(31.071 23.493)">
        <g id="Group_10639" data-name="Group 10639">
          <rect id="Rectangle_555" data-name="Rectangle 555" width="4.415" height="1.261" fill="#fff"/>
        </g>
      </g>
      <g id="Group_10642" data-name="Group 10642" transform="translate(30.037 26.793)">
        <g id="Group_10641" data-name="Group 10641" transform="translate(0 0)">
          <rect id="Rectangle_556" data-name="Rectangle 556" width="1.261" height="4.926" transform="matrix(0.64, -0.768, 0.768, 0.64, 0, 0.969)" fill="#fff"/>
        </g>
      </g>
      <g id="Group_10644" data-name="Group 10644" transform="translate(27.287 28.539)">
        <g id="Group_10643" data-name="Group 10643">
          <rect id="Rectangle_557" data-name="Rectangle 557" width="1.261" height="4.415" fill="#fff"/>
        </g>
      </g>
      <g id="Group_10646" data-name="Group 10646" transform="translate(0.644 9.636)">
        <g id="Group_10645" data-name="Group 10645" transform="translate(0 0)">
          <rect id="Rectangle_558" data-name="Rectangle 558" width="5.201" height="1.261" transform="translate(0 1.261) rotate(-14.035)" fill="#fff"/>
        </g>
      </g>
      <g id="Group_10648" data-name="Group 10648" transform="translate(1.692 3.429)">
        <g id="Group_10647" data-name="Group 10647" transform="translate(0 0)">
          <rect id="Rectangle_559" data-name="Rectangle 559" width="1.261" height="5.425" transform="matrix(0.581, -0.814, 0.814, 0.581, 0, 1.026)" fill="#fff"/>
        </g>
      </g>
      <g id="Group_10650" data-name="Group 10650" transform="translate(7.096)">
        <g id="Group_10649" data-name="Group 10649" transform="translate(0)">
          <rect id="Rectangle_560" data-name="Rectangle 560" width="1.261" height="5.208" transform="matrix(0.969, -0.248, 0.248, 0.969, 0, 0.312)" fill="#fff"/>
        </g>
      </g>
    </g>
  </g>
</svg>
